<svg width="4304" height="1439" xmlns="http://www.w3.org/2000/svg" xmlns:xlink="http://www.w3.org/1999/xlink" overflow="hidden"><defs><clipPath id="clip0"><rect x="114" y="715" width="4304" height="1439"/></clipPath></defs><g clip-path="url(#clip0)" transform="translate(-114 -715)"><path d="M115 956.17C115 824.08 222.08 717 354.169 717L4079.83 717C4211.92 717 4319 824.08 4319 956.17L4319 1912.83C4319 2044.92 4211.92 2152 4079.83 2152L354.169 2152C222.08 2152 115 2044.92 115 1912.83Z" fill="#000000" fill-rule="evenodd" fill-opacity="1"/><path d="M712.587 1792 1173 1680.79 1173 1174.7 837.905 1015 400 1110.62 400 1623.56ZM830.51 1079.13 1049.57 1183.52 872.232 1223.3 721.212 1257.17 517.598 1147.45ZM461.026 1587.08 461.026 1186.33 686.264 1307.71 686.264 1708.46ZM1111.97 1632.7 747.291 1720.8 747.291 1313.92 905.796 1278.36 1111.97 1232.11Z" fill="#F2AC19" fill-rule="evenodd" fill-opacity="1"/><path d="M716.639 1635 1021 1561.43 1021 1226.64 799.482 1121 510 1184.25 510 1523.57ZM794.593 1163.42 939.408 1232.48 822.174 1258.79 722.341 1281.2 587.739 1208.62ZM550.342 1499.44 550.342 1234.34 699.238 1314.63 699.238 1579.74ZM980.658 1529.62 739.58 1587.9 739.58 1318.74 844.362 1295.22 980.658 1264.63Z" fill="#BC80E0" fill-rule="evenodd" fill-opacity="1"/><path d="M700.872 1986.5 1349.5 1830.06 1349.5 1118.14 877.419 893.5 260.5 1028.01 260.5 1749.56ZM867.002 983.706 1175.62 1130.56 925.779 1186.51 713.023 1234.16 426.172 1079.81ZM346.474 1698.24 346.474 1134.51 663.788 1305.26 663.788 1868.99ZM1263.53 1762.42 749.762 1886.34 749.762 1313.99 973.065 1263.96 1263.53 1198.91Z" stroke="#000000" stroke-width="22.9167" stroke-linecap="round" stroke-linejoin="round" stroke-miterlimit="10" stroke-opacity="1" fill="#F37E19" fill-rule="evenodd" fill-opacity="1"/><text fill="#FFFFFF" fill-opacity="1" font-family="Menlo,Menlo_MSFontService,sans-serif" font-style="normal" font-variant="normal" font-weight="700" font-stretch="normal" font-size="440" text-anchor="start" direction="ltr" writing-mode="lr-tb" unicode-bidi="normal" text-decoration="none" transform="matrix(1 0 0 1 1506.82 1496)">Bricklayer<tspan fill="#FFFFFF" fill-opacity="1" font-family="Menlo,Menlo_MSFontService,sans-serif" font-style="normal" font-variant="normal" font-weight="400" font-stretch="normal" font-size="165" text-anchor="start" direction="ltr" writing-mode="lr-tb" unicode-bidi="normal" text-decoration="none" x="16.7393" y="256">Experiment Structures</tspan></text></g></svg>