<svg xmlns="http://www.w3.org/2000/svg" xmlns:xlink="http://www.w3.org/1999/xlink" xmlns:lucid="lucid" width="560" height="1100"><g transform="translate(60 -438.6756954532241)" lucid:page-tab-id="gHkJ_CZcMwQ8"><path d="M-40 464.68c0-3.32 2.7-6 6-6h508c3.3 0 6 2.68 6 6v1048c0 3.3-2.7 6-6 6H-34c-3.3 0-6-2.7-6-6z" stroke="#5e5e5e" stroke-width="3" fill="#ffc374"/><use xlink:href="#a" transform="matrix(1,0,0,1,-35,463.6756954532241) translate(0 21.333333333333336)"/><path d="M-20 924.68c0-3.32 2.7-6 6-6h328c3.3 0 6 2.68 6 6v188c0 3.3-2.7 6-6 6H-14c-3.3 0-6-2.7-6-6z" stroke="#5e5e5e" stroke-width="3" fill="#ffdf71"/><use xlink:href="#b" transform="matrix(1,0,0,1,-15,923.6756954532241) translate(0 21.333333333333336)"/><path d="M0 963.68c0-3.32 2.7-6 6-6h288c3.3 0 6 2.68 6 6v30c0 3.3-2.7 6-6 6H6c-3.3 0-6-2.7-6-6z" stroke="#5e5e5e" stroke-width="3" fill="#d1bcd2"/><use xlink:href="#c" transform="matrix(1,0,0,1,5,962.6756954532241) translate(0 23.333333333333336)"/><path d="M0 1013.68c0-3.32 2.7-6 6-6h288c3.3 0 6 2.68 6 6v30c0 3.3-2.7 6-6 6H6c-3.3 0-6-2.7-6-6z" stroke="#5e5e5e" stroke-width="3" fill="#d1bcd2"/><use xlink:href="#c" transform="matrix(1,0,0,1,5,1012.6756954532241) translate(0 23.333333333333336)"/><path d="M0 1063.68c0-3.32 2.7-6 6-6h288c3.3 0 6 2.68 6 6v30c0 3.3-2.7 6-6 6H6c-3.3 0-6-2.7-6-6z" stroke="#5e5e5e" stroke-width="3" fill="#d1bcd2"/><use xlink:href="#c" transform="matrix(1,0,0,1,5,1062.675695453224) translate(0 23.333333333333336)"/><path d="M-20 1244.68c0-3.32 2.7-6 6-6h328c3.3 0 6 2.68 6 6v188c0 3.3-2.7 6-6 6H-14c-3.3 0-6-2.7-6-6z" stroke="#5e5e5e" stroke-width="3" fill="#ffdf71"/><use xlink:href="#b" transform="matrix(1,0,0,1,-15,1243.675695453224) translate(0 21.333333333333336)"/><path d="M0 1283.68c0-3.32 2.7-6 6-6h288c3.3 0 6 2.68 6 6v30c0 3.3-2.7 6-6 6H6c-3.3 0-6-2.7-6-6z" stroke="#5e5e5e" stroke-width="3" fill="#d1bcd2"/><use xlink:href="#c" transform="matrix(1,0,0,1,5,1282.675695453224) translate(0 23.333333333333336)"/><path d="M0 1333.68c0-3.32 2.7-6 6-6h288c3.3 0 6 2.68 6 6v30c0 3.3-2.7 6-6 6H6c-3.3 0-6-2.7-6-6z" stroke="#5e5e5e" stroke-width="3" fill="#d1bcd2"/><use xlink:href="#c" transform="matrix(1,0,0,1,5,1332.675695453224) translate(0 23.333333333333336)"/><path d="M0 1383.68c0-3.32 2.7-6 6-6h288c3.3 0 6 2.68 6 6v30c0 3.3-2.7 6-6 6H6c-3.3 0-6-2.7-6-6z" stroke="#5e5e5e" stroke-width="3" fill="#d1bcd2"/><use xlink:href="#c" transform="matrix(1,0,0,1,5,1382.675695453224) translate(0 23.333333333333336)"/><path d="M150 518.67v-15.5c0-3.3 2.7-6 6-6h198c3.3 0 6 2.7 6 6v331c0 3.32-2.7 6-6 6H156c-3.3 0-6-2.68-6-6v-33" stroke="#5e5e5e" stroke-width="2" fill="none"/><path d="M150 533.94l-4.64-14.27h9.28z" stroke="#5e5e5e" stroke-width="2" fill="#5e5e5e"/><path d="M151 801.2h-2v-1.02h2" fill="#5e5e5e"/><path d="M-20 544.68c0-3.32 2.7-6 6-6h328c3.3 0 6 2.68 6 6v248c0 3.3-2.7 6-6 6H-14c-3.3 0-6-2.7-6-6z" stroke="#5e5e5e" stroke-width="3" fill="#ffdf71"/><use xlink:href="#b" transform="matrix(1,0,0,1,-15,543.6756954532241) translate(0 21.333333333333336)"/><path d="M0 633.68c0-3.32 2.7-6 6-6h288c3.3 0 6 2.68 6 6v30c0 3.3-2.7 6-6 6H6c-3.3 0-6-2.7-6-6z" stroke="#5e5e5e" stroke-width="3" fill="#d1bcd2"/><use xlink:href="#c" transform="matrix(1,0,0,1,5,632.6756954532241) translate(0 23.333333333333336)"/><path d="M0 683.68c0-3.32 2.7-6 6-6h288c3.3 0 6 2.68 6 6v30c0 3.3-2.7 6-6 6H6c-3.3 0-6-2.7-6-6z" stroke="#5e5e5e" stroke-width="3" fill="#d1bcd2"/><use xlink:href="#c" transform="matrix(1,0,0,1,5,682.6756954532241) translate(0 23.333333333333336)"/><path d="M0 733.68c0-3.32 2.7-6 6-6h288c3.3 0 6 2.68 6 6v30c0 3.3-2.7 6-6 6H6c-3.3 0-6-2.7-6-6z" stroke="#5e5e5e" stroke-width="3" fill="#d1bcd2"/><use xlink:href="#c" transform="matrix(1,0,0,1,5,732.6756954532241) translate(0 23.333333333333336)"/><path d="M150 898.67v-15.5c0-3.3 2.7-6 6-6h198c3.3 0 6 2.7 6 6v271c0 3.32-2.7 6-6 6H156c-3.3 0-6-2.68-6-6v-33" stroke="#5e5e5e" stroke-width="2" fill="none"/><path d="M150 913.94l-4.64-14.27h9.28z" stroke="#5e5e5e" stroke-width="2" fill="#5e5e5e"/><path d="M151 1121.2h-2v-1.02h2" fill="#5e5e5e"/><path d="M150 1218.67v-15.5c0-3.3 2.7-6 6-6h198c3.3 0 6 2.7 6 6v271c0 3.32-2.7 6-6 6H156c-3.3 0-6-2.68-6-6v-33" stroke="#5e5e5e" stroke-width="2" fill="none"/><path d="M150 1233.94l-4.64-14.27h9.28z" stroke="#5e5e5e" stroke-width="2" fill="#5e5e5e"/><path d="M151 1441.2h-2v-1.02h2" fill="#5e5e5e"/><path d="M121.05 801.18v97.5" stroke="#5e5e5e" stroke-width="2" fill="none"/><path d="M122.05 801.2h-2v-1.02h2" fill="#5e5e5e"/><path d="M121.05 913.94l-4.64-14.27h9.28z" stroke="#5e5e5e" stroke-width="2" fill="#5e5e5e"/><path d="M112.75 1121.18v97.5" stroke="#5e5e5e" stroke-width="2" fill="none"/><path d="M113.75 1121.2h-2v-1.02h2" fill="#5e5e5e"/><path d="M112.75 1233.94l-4.64-14.27h9.28z" stroke="#5e5e5e" stroke-width="2" fill="#5e5e5e"/><path d="M360 644.68c0-3.32 2.7-6 6-6h108c3.3 0 6 2.68 6 6v48c0 3.3-2.7 6-6 6H366c-3.3 0-6-2.7-6-6z" stroke="#000" stroke-opacity="0" stroke-width="3" fill="#fff" fill-opacity="0"/><use xlink:href="#d" transform="matrix(1,0,0,1,365,643.6756954532241) translate(17.854214891975303 28.797743055555554)"/><use xlink:href="#e" transform="matrix(1,0,0,1,365,643.6756954532241) translate(42.824797453703695 28.797743055555554)"/><path d="M360 994.68c0-3.32 2.7-6 6-6h108c3.3 0 6 2.68 6 6v48c0 3.3-2.7 6-6 6H366c-3.3 0-6-2.7-6-6z" stroke="#000" stroke-opacity="0" stroke-width="3" fill="#fff" fill-opacity="0"/><use xlink:href="#f" transform="matrix(1,0,0,1,365,993.6756954532241) translate(17.854214891975303 28.797743055555554)"/><use xlink:href="#e" transform="matrix(1,0,0,1,365,993.6756954532241) translate(42.824797453703695 28.797743055555554)"/><path d="M360 1324.68c0-3.32 2.7-6 6-6h108c3.3 0 6 2.68 6 6v48c0 3.3-2.7 6-6 6H366c-3.3 0-6-2.7-6-6z" stroke="#000" stroke-opacity="0" stroke-width="3" fill="#fff" fill-opacity="0"/><use xlink:href="#g" transform="matrix(1,0,0,1,365,1323.675695453224) translate(17.854214891975303 28.797743055555554)"/><use xlink:href="#e" transform="matrix(1,0,0,1,365,1323.675695453224) translate(42.824797453703695 28.797743055555554)"/><path d="M0 583.68c0-3.32 2.7-6 6-6h288c3.3 0 6 2.68 6 6v30c0 3.3-2.7 6-6 6H6c-3.3 0-6-2.7-6-6z" stroke="#5e5e5e" stroke-width="3" fill="#d1bcd2"/><g><use xlink:href="#c" transform="matrix(1,0,0,1,5,582.6756954532241) translate(0 23.333333333333336)"/></g><defs><path fill="#333" d="M160-131c35 5 61 23 61 61C221 17 115-2 30 0v-248c76 3 177-17 177 60 0 33-19 50-47 57zm-97-11c50-1 110 9 110-42 0-47-63-36-110-37v79zm0 115c55-2 124 14 124-45 0-56-70-42-124-44v89" id="h"/><path fill="#333" d="M24 0v-261h32V0H24" id="i"/><path fill="#333" d="M100-194c62-1 85 37 85 99 1 63-27 99-86 99S16-35 15-95c0-66 28-99 85-99zM99-20c44 1 53-31 53-75 0-43-8-75-51-75s-53 32-53 75 10 74 51 75" id="j"/><path fill="#333" d="M96-169c-40 0-48 33-48 73s9 75 48 75c24 0 41-14 43-38l32 2c-6 37-31 61-74 61-59 0-76-41-82-99-10-93 101-131 147-64 4 7 5 14 7 22l-32 3c-4-21-16-35-41-35" id="k"/><path fill="#333" d="M143 0L79-87 56-68V0H24v-261h32v163l83-92h37l-77 82L181 0h-38" id="l"/><g id="a"><use transform="matrix(0.07407407407407408,0,0,0.07407407407407408,0,0)" xlink:href="#h"/><use transform="matrix(0.07407407407407408,0,0,0.07407407407407408,17.77777777777778,0)" xlink:href="#i"/><use transform="matrix(0.07407407407407408,0,0,0.07407407407407408,23.629629629629633,0)" xlink:href="#j"/><use transform="matrix(0.07407407407407408,0,0,0.07407407407407408,38.44444444444445,0)" xlink:href="#k"/><use transform="matrix(0.07407407407407408,0,0,0.07407407407407408,51.777777777777786,0)" xlink:href="#l"/></g><path fill="#333" d="M127-220V0H93v-220H8v-28h204v28h-85" id="m"/><path fill="#333" d="M114-163C36-179 61-72 57 0H25l-1-190h30c1 12-1 29 2 39 6-27 23-49 58-41v29" id="n"/><path fill="#333" d="M24-231v-30h32v30H24zM24 0v-190h32V0H24" id="o"/><path fill="#333" d="M141-36C126-15 110 5 73 4 37 3 15-17 15-53c-1-64 63-63 125-63 3-35-9-54-41-54-24 1-41 7-42 31l-33-3c5-37 33-52 76-52 45 0 72 20 72 64v82c-1 20 7 32 28 27v20c-31 9-61-2-59-35zM48-53c0 20 12 33 32 33 41-3 63-29 60-74-43 2-92-5-92 41" id="p"/><g id="b"><use transform="matrix(0.07407407407407408,0,0,0.07407407407407408,0,0)" xlink:href="#m"/><use transform="matrix(0.07407407407407408,0,0,0.07407407407407408,15.259259259259261,0)" xlink:href="#n"/><use transform="matrix(0.07407407407407408,0,0,0.07407407407407408,24.074074074074076,0)" xlink:href="#o"/><use transform="matrix(0.07407407407407408,0,0,0.07407407407407408,29.92592592592593,0)" xlink:href="#p"/><use transform="matrix(0.07407407407407408,0,0,0.07407407407407408,44.74074074074075,0)" xlink:href="#i"/></g><path fill="#333" d="M30-248c87 1 191-15 191 75 0 78-77 80-158 76V0H30v-248zm33 125c57 0 124 11 124-50 0-59-68-47-124-48v98" id="q"/><path fill="#333" d="M106-169C34-169 62-67 57 0H25v-261h32l-1 103c12-21 28-36 61-36 89 0 53 116 60 194h-32v-121c2-32-8-49-39-48" id="r"/><path fill="#333" d="M135-143c-3-34-86-38-87 0 15 53 115 12 119 90S17 21 10-45l28-5c4 36 97 45 98 0-10-56-113-15-118-90-4-57 82-63 122-42 12 7 21 19 24 35" id="s"/><path fill="#333" d="M100-194c63 0 86 42 84 106H49c0 40 14 67 53 68 26 1 43-12 49-29l28 8c-11 28-37 45-77 45C44 4 14-33 15-96c1-61 26-98 85-98zm52 81c6-60-76-77-97-28-3 7-6 17-6 28h103" id="t"/><g id="c"><use transform="matrix(0.07407407407407408,0,0,0.07407407407407408,0,0)" xlink:href="#q"/><use transform="matrix(0.07407407407407408,0,0,0.07407407407407408,17.77777777777778,0)" xlink:href="#r"/><use transform="matrix(0.07407407407407408,0,0,0.07407407407407408,32.592592592592595,0)" xlink:href="#p"/><use transform="matrix(0.07407407407407408,0,0,0.07407407407407408,47.40740740740741,0)" xlink:href="#s"/><use transform="matrix(0.07407407407407408,0,0,0.07407407407407408,60.74074074074075,0)" xlink:href="#t"/></g><path fill="#333" d="M921-144c48 0 63-16 109-33l26 67C972-60 873-11 778 28 690 64 626 15 633-76c14-188 69-373 82-564 6-81-19-128-90-98-110 46-190 142-221 273-26 111-60 261-56 402C282-30 187 7 122 41L82 3c43-224 106-458 106-705 0-38-1-69-38-67-36 2-67 16-99 26l-19-69c107-43 233-100 355-124 65 2 45 93 45 161 0 18-3 35-5 52 73-73 144-126 215-161s136-52 196-52c102 0 136 58 132 159-7 202-85 376-85 574 0 38 5 59 36 59" id="u"/><path fill="#333" d="M188-1075c166-44 334-108 482-170l35 42L565-173c8 46 58 53 106 69 28 9 66 15 111 21L771 0H69l11-83c101-14 185-25 248-67 10-7 14-16 15-23 34-267 77-527 105-799 7-69-78-49-139-42-29 3-64 11-106 20" id="v"/><g id="d"><use transform="matrix(0.010850694444444444,0,0,0.010850694444444444,0,0)" xlink:href="#u"/><use transform="matrix(0.00759548611111111,0,0,0.00759548611111111,11.71875,3.398980034722222)" xlink:href="#v"/></g><path fill="#333" d="M115-194c55 1 70 41 70 98S169 2 115 4C84 4 66-9 55-30l1 105H24l-1-265h31l2 30c10-21 28-34 59-34zm-8 174c40 0 45-34 45-75s-6-73-45-74c-42 0-51 32-51 76 0 43 10 73 51 73" id="w"/><path fill="#333" d="M33 0v-38h34V0H33" id="x"/><g id="e"><use transform="matrix(0.06172839506172839,0,0,0.06172839506172839,0,0)" xlink:href="#n"/><use transform="matrix(0.06172839506172839,0,0,0.06172839506172839,7.345679012345679,0)" xlink:href="#t"/><use transform="matrix(0.06172839506172839,0,0,0.06172839506172839,19.691358024691358,0)" xlink:href="#w"/><use transform="matrix(0.06172839506172839,0,0,0.06172839506172839,32.03703703703704,0)" xlink:href="#s"/><use transform="matrix(0.06172839506172839,0,0,0.06172839506172839,43.14814814814815,0)" xlink:href="#x"/></g><path fill="#333" d="M438-1206c183-67 456-31 449 185-4 133-58 209-123 297-146 200-322 365-508 553h360c56-6 74-57 93-101 13-29 21-64 28-102l74 19L748 0H8L-8-74c197-200 361-369 506-570 81-112 140-191 148-333 5-91-39-142-125-142-103 0-135 95-138 200-57 29-136 53-210 64l-24-68c33-144 156-234 289-283" id="y"/><g id="f"><use transform="matrix(0.010850694444444444,0,0,0.010850694444444444,0,0)" xlink:href="#u"/><use transform="matrix(0.00759548611111111,0,0,0.00759548611111111,11.71875,3.398980034722222)" xlink:href="#y"/></g><path fill="#333" d="M556-1235c172 1 282 70 282 234 0 167-109 248-229 303 135 20 205 121 205 270C814-209 680-77 519-6c-108 48-254 47-353-6C106-44 47-85 3-134l54-97c81 74 150 121 277 121 160 0 232-124 238-291 6-149-94-225-246-193l-6-90c156-42 281-120 281-302 0-78-25-133-101-133-85 0-122 69-119 161-59 31-133 60-214 69l-24-61c43-145 165-228 309-272 33-10 68-13 104-13" id="z"/><g id="g"><use transform="matrix(0.010850694444444444,0,0,0.010850694444444444,0,0)" xlink:href="#u"/><use transform="matrix(0.00759548611111111,0,0,0.00759548611111111,11.71875,3.398980034722222)" xlink:href="#z"/></g></defs></g></svg>