<svg xmlns="http://www.w3.org/2000/svg" xmlns:xlink="http://www.w3.org/1999/xlink" xmlns:lucid="lucid" width="1600" height="1875"><g transform="translate(120 -85)" lucid:page-tab-id="c5mJO0Kv2Am9"><path d="M1430 105c16.57 0 30 13.43 30 30v1775c0 16.57-13.43 30-30 30H-70c-16.57 0-30-13.43-30-30V135c0-16.57 13.43-30 30-30z" stroke="#5e5e5e" stroke-width="3" fill="#fff"/><path d="M1100 306.1h360v98.05h-360z" fill="none"/><use xlink:href="#a" transform="matrix(1,0,0,1,1100,306.0996057722447) translate(0 40.611111111111114)"/><use xlink:href="#b" transform="matrix(1,0,0,1,1100,306.0996057722447) translate(81.11111111111111 40.611111111111114)"/><use xlink:href="#c" transform="matrix(1,0,0,1,1100,306.0996057722447) translate(105.80246913580247 40.611111111111114)"/><use xlink:href="#d" transform="matrix(1,0,0,1,1100,306.0996057722447) translate(183.9506172839506 40.611111111111114)"/><use xlink:href="#e" transform="matrix(1,0,0,1,1100,306.0996057722447) translate(0 67.27777777777777)"/><use xlink:href="#f" transform="matrix(1,0,0,1,1100,306.0996057722447) translate(112.85686728395063 67.27777777777777)"/><use xlink:href="#g" transform="matrix(1,0,0,1,1100,306.0996057722447) translate(144.89390432098767 67.27777777777777)"/><path d="M-40 464.68c0-3.32 2.7-6 6-6h508c3.3 0 6 2.68 6 6v1048c0 3.3-2.7 6-6 6H-34c-3.3 0-6-2.7-6-6z" stroke="#5e5e5e" stroke-width="3" fill="#ffc374"/><use xlink:href="#h" transform="matrix(1,0,0,1,-35,463.6756954532241) translate(0 21.333333333333336)"/><path d="M-20 924.68c0-3.32 2.7-6 6-6h328c3.3 0 6 2.68 6 6v188c0 3.3-2.7 6-6 6H-14c-3.3 0-6-2.7-6-6z" stroke="#5e5e5e" stroke-width="3" fill="#ffdf71"/><use xlink:href="#i" transform="matrix(1,0,0,1,-15,923.6756954532241) translate(0 21.333333333333336)"/><path d="M0 963.68c0-3.32 2.7-6 6-6h288c3.3 0 6 2.68 6 6v30c0 3.3-2.7 6-6 6H6c-3.3 0-6-2.7-6-6z" stroke="#5e5e5e" stroke-width="3" fill="#d1bcd2"/><use xlink:href="#j" transform="matrix(1,0,0,1,5,962.6756954532241) translate(0 23.333333333333336)"/><path d="M0 1013.68c0-3.32 2.7-6 6-6h288c3.3 0 6 2.68 6 6v30c0 3.3-2.7 6-6 6H6c-3.3 0-6-2.7-6-6z" stroke="#5e5e5e" stroke-width="3" fill="#d1bcd2"/><use xlink:href="#j" transform="matrix(1,0,0,1,5,1012.6756954532241) translate(0 23.333333333333336)"/><path d="M0 1063.68c0-3.32 2.7-6 6-6h288c3.3 0 6 2.68 6 6v30c0 3.3-2.7 6-6 6H6c-3.3 0-6-2.7-6-6z" stroke="#5e5e5e" stroke-width="3" fill="#d1bcd2"/><use xlink:href="#j" transform="matrix(1,0,0,1,5,1062.675695453224) translate(0 23.333333333333336)"/><path d="M-20 1244.68c0-3.32 2.7-6 6-6h328c3.3 0 6 2.68 6 6v188c0 3.3-2.7 6-6 6H-14c-3.3 0-6-2.7-6-6z" stroke="#5e5e5e" stroke-width="3" fill="#ffdf71"/><use xlink:href="#i" transform="matrix(1,0,0,1,-15,1243.675695453224) translate(0 21.333333333333336)"/><path d="M0 1283.68c0-3.32 2.7-6 6-6h288c3.3 0 6 2.68 6 6v30c0 3.3-2.7 6-6 6H6c-3.3 0-6-2.7-6-6z" stroke="#5e5e5e" stroke-width="3" fill="#d1bcd2"/><use xlink:href="#j" transform="matrix(1,0,0,1,5,1282.675695453224) translate(0 23.333333333333336)"/><path d="M0 1333.68c0-3.32 2.7-6 6-6h288c3.3 0 6 2.68 6 6v30c0 3.3-2.7 6-6 6H6c-3.3 0-6-2.7-6-6z" stroke="#5e5e5e" stroke-width="3" fill="#d1bcd2"/><use xlink:href="#j" transform="matrix(1,0,0,1,5,1332.675695453224) translate(0 23.333333333333336)"/><path d="M0 1383.68c0-3.32 2.7-6 6-6h288c3.3 0 6 2.68 6 6v30c0 3.3-2.7 6-6 6H6c-3.3 0-6-2.7-6-6z" stroke="#5e5e5e" stroke-width="3" fill="#d1bcd2"/><use xlink:href="#j" transform="matrix(1,0,0,1,5,1382.675695453224) translate(0 23.333333333333336)"/><path d="M150 518.67v-15.5c0-3.3 2.7-6 6-6h198c3.3 0 6 2.7 6 6v331c0 3.32-2.7 6-6 6H156c-3.3 0-6-2.68-6-6v-33" stroke="#5e5e5e" stroke-width="2" fill="none"/><path d="M150 533.94l-4.64-14.27h9.28z" stroke="#5e5e5e" stroke-width="2" fill="#5e5e5e"/><path d="M151 801.2h-2v-1.02h2" fill="#5e5e5e"/><path d="M-20 544.68c0-3.32 2.7-6 6-6h328c3.3 0 6 2.68 6 6v248c0 3.3-2.7 6-6 6H-14c-3.3 0-6-2.7-6-6z" stroke="#5e5e5e" stroke-width="3" fill="#ffdf71"/><use xlink:href="#i" transform="matrix(1,0,0,1,-15,543.6756954532241) translate(0 21.333333333333336)"/><path d="M0 583.68c0-3.32 2.7-6 6-6h288c3.3 0 6 2.68 6 6v30c0 3.3-2.7 6-6 6H6c-3.3 0-6-2.7-6-6z" stroke="#5e5e5e" stroke-width="3" fill="#d1bcd2"/><use xlink:href="#j" transform="matrix(1,0,0,1,5,582.6756954532241) translate(0 23.333333333333336)"/><path d="M0 633.68c0-3.32 2.7-6 6-6h288c3.3 0 6 2.68 6 6v30c0 3.3-2.7 6-6 6H6c-3.3 0-6-2.7-6-6z" stroke="#5e5e5e" stroke-width="3" fill="#d1bcd2"/><use xlink:href="#j" transform="matrix(1,0,0,1,5,632.6756954532241) translate(0 23.333333333333336)"/><path d="M0 683.68c0-3.32 2.7-6 6-6h288c3.3 0 6 2.68 6 6v30c0 3.3-2.7 6-6 6H6c-3.3 0-6-2.7-6-6z" stroke="#5e5e5e" stroke-width="3" fill="#d1bcd2"/><use xlink:href="#j" transform="matrix(1,0,0,1,5,682.6756954532241) translate(0 23.333333333333336)"/><path d="M0 733.68c0-3.32 2.7-6 6-6h288c3.3 0 6 2.68 6 6v30c0 3.3-2.7 6-6 6H6c-3.3 0-6-2.7-6-6z" stroke="#5e5e5e" stroke-width="3" fill="#d1bcd2"/><use xlink:href="#j" transform="matrix(1,0,0,1,5,732.6756954532241) translate(0 23.333333333333336)"/><path d="M150 898.67v-15.5c0-3.3 2.7-6 6-6h198c3.3 0 6 2.7 6 6v271c0 3.32-2.7 6-6 6H156c-3.3 0-6-2.68-6-6v-33" stroke="#5e5e5e" stroke-width="2" fill="none"/><path d="M150 913.94l-4.64-14.27h9.28z" stroke="#5e5e5e" stroke-width="2" fill="#5e5e5e"/><path d="M151 1121.2h-2v-1.02h2" fill="#5e5e5e"/><path d="M150 1218.67v-15.5c0-3.3 2.7-6 6-6h198c3.3 0 6 2.7 6 6v271c0 3.32-2.7 6-6 6H156c-3.3 0-6-2.68-6-6v-33" stroke="#5e5e5e" stroke-width="2" fill="none"/><path d="M150 1233.94l-4.64-14.27h9.28z" stroke="#5e5e5e" stroke-width="2" fill="#5e5e5e"/><path d="M151 1441.2h-2v-1.02h2" fill="#5e5e5e"/><path d="M121.05 801.18v97.5" stroke="#5e5e5e" stroke-width="2" fill="none"/><path d="M122.05 801.2h-2v-1.02h2" fill="#5e5e5e"/><path d="M121.05 913.94l-4.64-14.27h9.28z" stroke="#5e5e5e" stroke-width="2" fill="#5e5e5e"/><path d="M112.75 1121.18v97.5" stroke="#5e5e5e" stroke-width="2" fill="none"/><path d="M113.75 1121.2h-2v-1.02h2" fill="#5e5e5e"/><path d="M112.75 1233.94l-4.64-14.27h9.28z" stroke="#5e5e5e" stroke-width="2" fill="#5e5e5e"/><path d="M360 644.68c0-3.32 2.7-6 6-6h108c3.3 0 6 2.68 6 6v48c0 3.3-2.7 6-6 6H366c-3.3 0-6-2.7-6-6z" stroke="#000" stroke-opacity="0" stroke-width="3" fill="#fff" fill-opacity="0"/><use xlink:href="#k" transform="matrix(1,0,0,1,365,643.6756954532241) translate(17.854214891975303 28.797743055555554)"/><use xlink:href="#l" transform="matrix(1,0,0,1,365,643.6756954532241) translate(42.824797453703695 28.797743055555554)"/><path d="M360 994.68c0-3.32 2.7-6 6-6h108c3.3 0 6 2.68 6 6v48c0 3.3-2.7 6-6 6H366c-3.3 0-6-2.7-6-6z" stroke="#000" stroke-opacity="0" stroke-width="3" fill="#fff" fill-opacity="0"/><use xlink:href="#m" transform="matrix(1,0,0,1,365,993.6756954532241) translate(17.854214891975303 28.797743055555554)"/><use xlink:href="#l" transform="matrix(1,0,0,1,365,993.6756954532241) translate(42.824797453703695 28.797743055555554)"/><path d="M360 1324.68c0-3.32 2.7-6 6-6h108c3.3 0 6 2.68 6 6v48c0 3.3-2.7 6-6 6H366c-3.3 0-6-2.7-6-6z" stroke="#000" stroke-opacity="0" stroke-width="3" fill="#fff" fill-opacity="0"/><use xlink:href="#n" transform="matrix(1,0,0,1,365,1323.675695453224) translate(17.854214891975303 28.797743055555554)"/><use xlink:href="#l" transform="matrix(1,0,0,1,365,1323.675695453224) translate(42.824797453703695 28.797743055555554)"/><path d="M600 166c0-3.3 2.7-6 6-6h468c3.3 0 6 2.7 6 6v348c0 3.3-2.7 6-6 6H606c-3.3 0-6-2.7-6-6z" stroke="#5e5e5e" stroke-width="3" fill="#d1bcd2"/><use xlink:href="#o" transform="matrix(1,0,0,1,605,164.99999999999997) translate(0 21.333333333333332)"/><path d="M732 200c15.46 0 28 11.2 28 25s-12.54 25-28 25h-84c-15.46 0-28-11.2-28-25s12.54-25 28-25z" stroke="#834187" stroke-width="3" fill="#fff"/><use xlink:href="#p" transform="matrix(1,0,0,1,625,205) translate(18.325737847222214 27.7734375)"/><path d="M732 315c15.46 0 28 11.2 28 25s-12.54 25-28 25h-84c-15.46 0-28-11.2-28-25s12.54-25 28-25z" stroke="#834187" stroke-width="3" fill="#fff"/><use xlink:href="#q" transform="matrix(1,0,0,1,625,320) translate(24.99348958333333 27.7734375)"/><path d="M732 430c15.46 0 28 11.2 28 25s-12.54 25-28 25h-84c-15.46 0-28-11.2-28-25s12.54-25 28-25z" stroke="#834187" stroke-width="3" fill="#fff"/><use xlink:href="#r" transform="matrix(1,0,0,1,625,435) translate(11.6579861111111 27.7734375)"/><path d="M690 295v-15.5c0-3.3 2.7-6 6-6h98c3.3 0 6 2.7 6 6v121c0 3.3-2.7 6-6 6h-98c-3.3 0-6-2.7-6-6v-33" stroke="#5e5e5e" stroke-width="2" fill="none"/><path d="M690 310.26L685.36 296h9.28z" stroke="#5e5e5e" stroke-width="2" fill="#5e5e5e"/><path d="M691 367.53h-2v-1.03h2" fill="#5e5e5e"/><path d="M820 251.7c0-3.33 2.7-6 6-6h208c3.3 0 6 2.67 6 6V438c0 3.3-2.7 6-6 6H826c-3.3 0-6-2.7-6-6z" stroke="#000" stroke-opacity="0" stroke-width="3" fill="#fff" fill-opacity="0"/><use xlink:href="#s" transform="matrix(1,0,0,1,825,250.68836805555554) translate(0 17.77777777777778)"/><use xlink:href="#t" transform="matrix(1,0,0,1,825,250.68836805555554) translate(62.901234567901234 17.77777777777778)"/><use xlink:href="#u" transform="matrix(1,0,0,1,825,250.68836805555554) translate(125.74074074074073 17.77777777777778)"/><use xlink:href="#v" transform="matrix(1,0,0,1,825,250.68836805555554) translate(0 46.08940972222222)"/><use xlink:href="#w" transform="matrix(1,0,0,1,825,250.68836805555554) translate(86.2962962962963 46.08940972222222)"/><use xlink:href="#x" transform="matrix(1,0,0,1,825,250.68836805555554) translate(103.5151427469136 46.08940972222222)"/><use xlink:href="#y" transform="matrix(1,0,0,1,825,250.68836805555554) translate(0 72.75607638888889)"/><use xlink:href="#z" transform="matrix(1,0,0,1,825,250.68836805555554) translate(46.79012345679013 72.75607638888889)"/><use xlink:href="#A" transform="matrix(1,0,0,1,825,250.68836805555554) translate(0 99.42274305555557)"/><use xlink:href="#B" transform="matrix(1,0,0,1,825,250.68836805555554) translate(60.49382716049383 99.42274305555557)"/><use xlink:href="#C" transform="matrix(1,0,0,1,825,250.68836805555554) translate(82.65432098765433 99.42274305555557)"/><use xlink:href="#D" transform="matrix(1,0,0,1,825,250.68836805555554) translate(0 126.08940972222223)"/><use xlink:href="#E" transform="matrix(1,0,0,1,825,250.68836805555554) translate(0 152.75607638888889)"/><use xlink:href="#F" transform="matrix(1,0,0,1,825,250.68836805555554) translate(87.5925925925926 152.75607638888889)"/><use xlink:href="#G" transform="matrix(1,0,0,1,825,250.68836805555554) translate(129.5679012345679 152.75607638888889)"/><use xlink:href="#H" transform="matrix(1,0,0,1,825,250.68836805555554) translate(183.88888888888889 152.75607638888889)"/><use xlink:href="#I" transform="matrix(1,0,0,1,825,250.68836805555554) translate(0 179.42274305555554)"/><use xlink:href="#J" transform="matrix(1,0,0,1,825,250.68836805555554) translate(70.18518518518518 179.42274305555554)"/><path d="M600 566c0-3.3 2.7-6 6-6h708c3.3 0 6 2.7 6 6v668c0 3.3-2.7 6-6 6H606c-3.3 0-6-2.7-6-6z" stroke="#5e5e5e" stroke-width="3" fill="#ffdf71"/><use xlink:href="#K" transform="matrix(1,0,0,1,605,565) translate(0 21.333333333333332)"/><path d="M900 647.34c0 15.28-12.38 27.66-27.66 27.66H647.66c-15.28 0-27.66-12.38-27.66-27.66s12.38-27.66 27.66-27.66h224.68c15.28 0 27.66 12.38 27.66 27.66z" stroke="#d4a01c" stroke-width="3" fill="#fff"/><use xlink:href="#L" transform="matrix(1,0,0,1,625,624.6756954532241) translate(41.651475694444414 29.2734375)"/><path d="M900 769.34c0 16.2-13.14 29.34-29.34 29.34H649.34c-16.2 0-29.34-13.14-29.34-29.34S633.14 740 649.34 740h221.32c16.2 0 29.34 13.14 29.34 29.34z" stroke="#d4a01c" stroke-width="3" fill="#fff"/><use xlink:href="#M" transform="matrix(1,0,0,1,625,745) translate(14.980468749999957 30.0234375)"/><path d="M900 1187.5c0 15.2-12.3 27.5-27.5 27.5h-225c-15.2 0-27.5-12.3-27.5-27.5s12.3-27.5 27.5-27.5h225c15.2 0 27.5 12.3 27.5 27.5z" stroke="#d4a01c" stroke-width="3" fill="#fff"/><use xlink:href="#N" transform="matrix(1,0,0,1,625,1165) translate(21.64822048611107 29.0234375)"/><path d="M750.57 849.37c0-3.3 2.68-6 6-6h108c3.3 0 6 2.7 6 6v19.33c0 3.32-2.7 6-6 6h-108c-3.32 0-6-2.68-6-6z" stroke="#5e5e5e" stroke-width="3" fill="#d1bcd2"/><use xlink:href="#O" transform="matrix(1,0,0,1,762.5662152273388,855.3700086805557) translate(25.96296296296297 12.444444444444441)"/><path d="M700.57 929.74c0-3.3 2.68-6 6-6h108c3.3 0 6 2.7 6 6v19.33c0 3.32-2.7 6-6 6h-108c-3.32 0-6-2.68-6-6z" stroke="#5e5e5e" stroke-width="3" fill="#d1bcd2"/><use xlink:href="#O" transform="matrix(1,0,0,1,712.5662152273388,935.7400173611113) translate(25.96296296296297 12.444444444444441)"/><path d="M700.57 1057.5c0-3.3 2.68-6 6-6h108c3.3 0 6 2.7 6 6v19.34c0 3.32-2.7 6-6 6h-108c-3.32 0-6-2.68-6-6z" stroke="#5e5e5e" stroke-width="3" fill="#d1bcd2"/><use xlink:href="#O" transform="matrix(1,0,0,1,712.5662152273388,1063.5108506944446) translate(25.96296296296297 12.444444444444441)"/><path d="M664.44 252.5V295" stroke="#5e5e5e" stroke-width="2" fill="none"/><path d="M665.44 252.53h-2v-1.03h2" fill="#5e5e5e"/><path d="M664.44 310.26L659.8 296h9.28z" stroke="#5e5e5e" stroke-width="2" fill="#5e5e5e"/><path d="M662.55 367.5V410" stroke="#5e5e5e" stroke-width="2" fill="none"/><path d="M663.55 367.53h-2v-1.03h2" fill="#5e5e5e"/><path d="M662.55 425.26L657.9 411h9.28z" stroke="#5e5e5e" stroke-width="2" fill="#5e5e5e"/><path d="M693.96 677.5v29.9c0 .06.05.1.1.1s.1.04.1.1V720" stroke="#5e5e5e" stroke-width="2" fill="none"/><path d="M694.96 677.53h-2v-1.03h2" fill="#5e5e5e"/><path d="M694.16 735.26L689.52 721h9.27z" stroke="#5e5e5e" stroke-width="2" fill="#5e5e5e"/><path d="M760.57 1085.34v33c0 3.32 2.68 6 6 6H1064c3.3 0 6-2.68 6-6v-419.5c0-3.32-2.7-6-6-6H766c-3.3 0-6 2.68-6 6V720" stroke="#5e5e5e" stroke-width="2" fill="none"/><path d="M761.57 1085.37h-2v-1.03h2" fill="#5e5e5e"/><path d="M760 735.26L755.36 721h9.28z" stroke="#5e5e5e" stroke-width="2" fill="#5e5e5e"/><path d="M760 801.18v13.84c0 3.32 2.7 6 6 6h42.22c1.3 0 2.35 1.05 2.35 2.35" stroke="#5e5e5e" stroke-width="2" fill="none"/><path d="M761 801.2h-2v-1.02h2" fill="#5e5e5e"/><path d="M810.57 838.63l-4.64-14.26h9.27z" stroke="#5e5e5e" stroke-width="2" fill="#5e5e5e"/><path d="M728.66 1085.34v36c0 .05-.03.08-.07.08-.04 0-.07.03-.07.07v18.5" stroke="#5e5e5e" stroke-width="2" fill="none"/><path d="M729.66 1085.37h-2v-1.03h2" fill="#5e5e5e"/><path d="M728.53 1155.26L723.9 1141h9.26z" stroke="#5e5e5e" stroke-width="2" fill="#5e5e5e"/><path d="M1080 816.1c0-3.32 2.7-6 6-6h208c3.3 0 6 2.68 6 6v186.3c0 3.32-2.7 6-6 6h-208c-3.3 0-6-2.68-6-6z" stroke="#000" stroke-opacity="0" stroke-width="3" fill="#fff" fill-opacity="0"/><use xlink:href="#P" transform="matrix(1,0,0,1,1085,815.0950520833336) translate(0 19.422743055555554)"/><use xlink:href="#f" transform="matrix(1,0,0,1,1085,815.0950520833336) translate(77.71604938271604 19.422743055555554)"/><use xlink:href="#Q" transform="matrix(1,0,0,1,1085,815.0950520833336) translate(109.75308641975307 19.422743055555554)"/><use xlink:href="#R" transform="matrix(1,0,0,1,1085,815.0950520833336) translate(0 46.08940972222222)"/><use xlink:href="#S" transform="matrix(1,0,0,1,1085,815.0950520833336) translate(108.4567901234568 46.08940972222222)"/><use xlink:href="#T" transform="matrix(1,0,0,1,1085,815.0950520833336) translate(134.320987654321 46.08940972222222)"/><use xlink:href="#U" transform="matrix(1,0,0,1,1085,815.0950520833336) translate(0 72.75607638888889)"/><use xlink:href="#V" transform="matrix(1,0,0,1,1085,815.0950520833336) translate(0 99.42274305555557)"/><use xlink:href="#W" transform="matrix(1,0,0,1,1085,815.0950520833336) translate(22.160493827160494 99.42274305555557)"/><use xlink:href="#D" transform="matrix(1,0,0,1,1085,815.0950520833336) translate(0 126.08940972222223)"/><use xlink:href="#X" transform="matrix(1,0,0,1,1085,815.0950520833336) translate(0 152.75607638888889)"/><use xlink:href="#F" transform="matrix(1,0,0,1,1085,815.0950520833336) translate(66.79012345679011 152.75607638888889)"/><use xlink:href="#Y" transform="matrix(1,0,0,1,1085,815.0950520833336) translate(108.76543209876542 152.75607638888889)"/><use xlink:href="#Z" transform="matrix(1,0,0,1,1085,815.0950520833336) translate(0 179.42274305555554)"/><path d="M600 1286c0-3.3 2.7-6 6-6h608c3.3 0 6 2.7 6 6v588c0 3.3-2.7 6-6 6H606c-3.3 0-6-2.7-6-6z" stroke="#5e5e5e" stroke-width="3" fill="#ffc374"/><use xlink:href="#aa" transform="matrix(1,0,0,1,605,1285) translate(0 21.333333333333332)"/><path d="M900 1830c0 16.57-13.43 30-30 30H650c-16.57 0-30-13.43-30-30s13.43-30 30-30h220c16.57 0 30 13.43 30 30z" stroke="#d4a01c" stroke-width="3" fill="#fff"/><use xlink:href="#ab" transform="matrix(1,0,0,1,625,1805) translate(54.98697916666664 30.2734375)"/><path d="M690 1419.68c0-3.32 2.7-6 6-6h128c3.3 0 6 2.68 6 6v48c0 3.3-2.7 6-6 6H696c-3.3 0-6-2.7-6-6z" stroke="#5e5e5e" stroke-width="3" fill="#ffdf71"/><use xlink:href="#ac" transform="matrix(1,0,0,1,702,1425.675695453224) translate(0 12.444444444444441)"/><path d="M753.07 1427.35c0-1.38 1.12-2.5 2.5-2.5h60c1.38 0 2.5 1.12 2.5 2.5s-1.12 2.5-2.5 2.5h-60c-1.38 0-2.5-1.12-2.5-2.5zM753.07 1443.68c0-1.4 1.12-2.5 2.5-2.5h60c1.38 0 2.5 1.1 2.5 2.5 0 1.38-1.12 2.5-2.5 2.5h-60c-1.38 0-2.5-1.12-2.5-2.5zM753.07 1460c0-1.38 1.12-2.5 2.5-2.5h60c1.38 0 2.5 1.12 2.5 2.5s-1.12 2.5-2.5 2.5h-60c-1.38 0-2.5-1.12-2.5-2.5z" stroke="#b391b5" stroke-width="5" fill="none"/><path d="M690 1516c0-3.3 2.7-6 6-6h128c3.3 0 6 2.7 6 6v48c0 3.3-2.7 6-6 6H696c-3.3 0-6-2.7-6-6z" stroke="#5e5e5e" stroke-width="3" fill="#ffdf71"/><use xlink:href="#ac" transform="matrix(1,0,0,1,702,1522) translate(0 12.444444444444441)"/><path d="M753.07 1523.68c0-1.4 1.12-2.5 2.5-2.5h60c1.38 0 2.5 1.1 2.5 2.5 0 1.38-1.12 2.5-2.5 2.5h-60c-1.38 0-2.5-1.12-2.5-2.5zM753.07 1540c0-1.38 1.12-2.5 2.5-2.5h60c1.38 0 2.5 1.12 2.5 2.5s-1.12 2.5-2.5 2.5h-60c-1.38 0-2.5-1.12-2.5-2.5zM753.07 1556.32c0-1.38 1.12-2.5 2.5-2.5h60c1.38 0 2.5 1.12 2.5 2.5 0 1.4-1.12 2.5-2.5 2.5h-60c-1.38 0-2.5-1.1-2.5-2.5z" stroke="#b391b5" stroke-width="5" fill="none"/><path d="M690 1612.32c0-3.3 2.7-6 6-6h128c3.3 0 6 2.7 6 6v48c0 3.32-2.7 6-6 6H696c-3.3 0-6-2.68-6-6z" stroke="#5e5e5e" stroke-width="3" fill="#ffdf71"/><use xlink:href="#ac" transform="matrix(1,0,0,1,702,1618.324304546776) translate(0 12.444444444444441)"/><path d="M753.07 1620c0-1.38 1.12-2.5 2.5-2.5h60c1.38 0 2.5 1.12 2.5 2.5s-1.12 2.5-2.5 2.5h-60c-1.38 0-2.5-1.12-2.5-2.5zM753.07 1636.32c0-1.38 1.12-2.5 2.5-2.5h60c1.38 0 2.5 1.12 2.5 2.5 0 1.4-1.12 2.5-2.5 2.5h-60c-1.38 0-2.5-1.1-2.5-2.5zM753.07 1652.65c0-1.38 1.12-2.5 2.5-2.5h60c1.38 0 2.5 1.12 2.5 2.5s-1.12 2.5-2.5 2.5h-60c-1.38 0-2.5-1.12-2.5-2.5z" stroke="#b391b5" stroke-width="5" fill="none"/><path d="M760 1382.5v11.17" stroke="#5e5e5e" stroke-width="2" fill="none"/><path d="M761 1382.53h-2v-1.03h2" fill="#5e5e5e"/><path d="M760 1408.94l-4.64-14.27h9.28z" stroke="#5e5e5e" stroke-width="2" fill="#5e5e5e"/><path d="M760 1476.18V1490" stroke="#5e5e5e" stroke-width="2" fill="none"/><path d="M761 1476.2h-2v-1.02h2" fill="#5e5e5e"/><path d="M760 1505.26l-4.64-14.26h9.28z" stroke="#5e5e5e" stroke-width="2" fill="#5e5e5e"/><path d="M760 1572.5v13.82" stroke="#5e5e5e" stroke-width="2" fill="none"/><path d="M761 1572.53h-2v-1.03h2" fill="#5e5e5e"/><path d="M760 1601.6l-4.64-14.28h9.28z" stroke="#5e5e5e" stroke-width="2" fill="#5e5e5e"/><path d="M760 1680v-11.18" stroke="#5e5e5e" stroke-width="2" fill="none"/><path d="M760 1695.26l-4.64-14.26h9.28z" stroke="#5e5e5e" stroke-width="2" fill="#5e5e5e"/><path d="M761 1668.85h-2v-1.03h2" fill="#5e5e5e"/><path d="M920 1562.32c0-3.3 2.7-6 6-6h268c3.3 0 6 2.7 6 6v148c0 3.32-2.7 6-6 6H926c-3.3 0-6-2.68-6-6z" stroke="#000" stroke-opacity="0" stroke-width="3" fill="#fff" fill-opacity="0"/><use xlink:href="#ad" transform="matrix(1,0,0,1,925,1561.324304546776) translate(0 55.27777777777778)"/><use xlink:href="#ae" transform="matrix(1,0,0,1,925,1561.324304546776) translate(59.44444444444445 55.27777777777778)"/><use xlink:href="#af" transform="matrix(1,0,0,1,925,1561.324304546776) translate(90.30864197530865 55.27777777777778)"/><use xlink:href="#ag" transform="matrix(1,0,0,1,925,1561.324304546776) translate(127.34567901234568 55.27777777777778)"/><use xlink:href="#ah" transform="matrix(1,0,0,1,925,1561.324304546776) translate(181.66666666666669 55.27777777777778)"/><use xlink:href="#ai" transform="matrix(1,0,0,1,925,1561.324304546776) translate(0 81.94444444444446)"/><use xlink:href="#aj" transform="matrix(1,0,0,1,925,1561.324304546776) translate(92.46913580246914 81.94444444444446)"/><use xlink:href="#ak" transform="matrix(1,0,0,1,925,1561.324304546776) translate(168.76543209876542 81.94444444444446)"/><use xlink:href="#al" transform="matrix(1,0,0,1,925,1561.324304546776) translate(198.39506172839504 81.94444444444446)"/><use xlink:href="#am" transform="matrix(1,0,0,1,925,1561.324304546776) translate(0 108.60677083333334)"/><path d="M690 1706c0-3.3 2.7-6 6-6h128c3.3 0 6 2.7 6 6v48c0 3.3-2.7 6-6 6H696c-3.3 0-6-2.7-6-6z" stroke="#5e5e5e" stroke-width="3" fill="#ffdf71"/><g><use xlink:href="#ac" transform="matrix(1,0,0,1,702,1712) translate(0 12.444444444444441)"/></g><path d="M753.07 1713.68c0-1.4 1.12-2.5 2.5-2.5h60c1.38 0 2.5 1.1 2.5 2.5 0 1.38-1.12 2.5-2.5 2.5h-60c-1.38 0-2.5-1.12-2.5-2.5zM753.07 1730c0-1.38 1.12-2.5 2.5-2.5h60c1.38 0 2.5 1.12 2.5 2.5s-1.12 2.5-2.5 2.5h-60c-1.38 0-2.5-1.12-2.5-2.5zM753.07 1746.32c0-1.38 1.12-2.5 2.5-2.5h60c1.38 0 2.5 1.12 2.5 2.5 0 1.4-1.12 2.5-2.5 2.5h-60c-1.38 0-2.5-1.1-2.5-2.5z" stroke="#b391b5" stroke-width="5" fill="none"/><path d="M760 1780v-17.5" stroke="#5e5e5e" stroke-width="2" fill="none"/><path d="M760 1795.26l-4.64-14.26h9.28z" stroke="#5e5e5e" stroke-width="2" fill="#5e5e5e"/><path d="M761 1762.53h-2v-1.03h2" fill="#5e5e5e"/><path d="M832.5 1720h3.1m4.1 0h6.2m4.1 0h6.2m4.1 0h6.2m4.1 0h6.2m4.1 0h3.1l2.7-.73m2.57-2.57l.73-2.7v-2.95m0-3.94v-5.9m0-3.93v-5.9m0-3.94v-5.9m0-3.95v-5.9m0-3.94v-5.9m0-3.94v-5.9m0-3.94v-5.9m0-3.94v-5.9m0-3.95v-5.9m0-3.94v-5.9m0-3.94v-5.9m0-3.95v-5.9m0-3.94v-5.9m0-3.94v-5.9m0-3.94v-5.9m0-3.94v-5.9m0-3.94v-5.9m0-3.94v-5.9m0-3.95v-5.9m0-3.94v-5.9m0-3.93v-5.9m0-3.94v-5.9m0-3.94v-5.92m0-3.94v-5.9m0-3.94v-5.9m0-3.94v-5.9m0-3.94v-2.95l-.73-2.7m-2.57-2.57l-2.7-.73h-3.4m-4.53 0h-6.8m-4.54 0h-6.8m-4.53 0H850" stroke="#5e5e5e" stroke-width="2" fill="none"/><path d="M832.53 1721h-1.03v-2h1.03" fill="#5e5e5e"/><path d="M834.74 1442.27l14.26-4.64v9.27z" stroke="#5e5e5e" stroke-width="2" fill="#5e5e5e"/><path d="M832.5 1535h3.06m4.1 0h6.12m4.08 0H856m4.08 0h6.13m4.1 0h6.12m4.1 0h6.12m4.08 0h6.13m4.1 0H904l2.7.73m2.57 2.57l.73 2.7v2.93m0 3.9v5.85m0 3.9v5.85m0 3.9v5.85m0 3.9v5.86m0 3.9v5.85m0 3.9v5.84m0 3.9v5.86m0 3.9v5.85m0 3.9v5.85m0 3.9v5.85m0 3.9v5.86m0 3.9v5.86m0 3.9v5.85m0 3.9v5.87m0 3.9v5.85m0 3.9v5.85m0 3.9v5.86m0 3.9v5.85m0 3.9v5.85m0 3.9v2.93l-.73 2.7m-2.57 2.57l-2.7.73h-3.24m-4.32 0h-6.48m-4.32 0h-6.48m-4.32 0h-6.48m-4.32 0h-6.48m-4.32 0H850" stroke="#5e5e5e" stroke-width="2" fill="none"/><path d="M832.53 1536h-1.03v-2h1.03" fill="#5e5e5e"/><path d="M834.74 1742.06l14.26-4.64v9.27z" stroke="#5e5e5e" stroke-width="2" fill="#5e5e5e"/><path d="M700.57 990.64c0-3.32 2.68-6 6-6h108c3.3 0 6 2.68 6 6v19.33c0 3.3-2.7 6-6 6h-108c-3.32 0-6-2.7-6-6z" stroke="#5e5e5e" stroke-width="3" fill="#d1bcd2"/><g><use xlink:href="#O" transform="matrix(1,0,0,1,712.5662152273388,996.6358506944446) translate(25.96296296296297 12.444444444444441)"/></g><path d="M810.57 877.2v16.02c0 3.32-2.7 6-6 6h-39.5c-2.48 0-4.5 2.02-4.5 4.52" stroke="#5e5e5e" stroke-width="2" fill="none"/><path d="M811.57 877.23h-2v-1.03h2" fill="#5e5e5e"/><path d="M760.57 919l-4.64-14.26h9.27z" stroke="#5e5e5e" stroke-width="2" fill="#5e5e5e"/><path d="M760.57 957.57v7.06" stroke="#5e5e5e" stroke-width="2" fill="none"/><path d="M761.57 957.6h-2v-1.03h2" fill="#5e5e5e"/><path d="M760.57 979.9l-4.64-14.27h9.27z" stroke="#5e5e5e" stroke-width="2" fill="#5e5e5e"/><path d="M760.57 1018.47v13.04" stroke="#5e5e5e" stroke-width="2" fill="none"/><path d="M761.57 1018.5h-2v-1.03h2" fill="#5e5e5e"/><path d="M760.57 1046.77l-4.64-14.26h9.27z" stroke="#5e5e5e" stroke-width="2" fill="#5e5e5e"/><path d="M718.94 801.18v3m0 4v6m0 4v6m0 4v6m0 4v6m0 4v6m0 4v3.02h.02l.02.03v3.2m0 4.24v6.38m0 4.25v6.37m0 4.25v6.38m0 4.25v3.2" stroke="#5e5e5e" stroke-width="2" fill="none"/><path d="M719.94 801.2h-2v-1.02h2" fill="#5e5e5e"/><path d="M718.98 919l-4.63-14.26h9.27z" stroke="#5e5e5e" stroke-width="2" fill="#5e5e5e"/><path d="M880 816.1c0-3.32 2.7-6 6-6h148c3.3 0 6 2.68 6 6v101.64c0 3.3-2.7 6-6 6H886c-3.3 0-6-2.7-6-6z" stroke="#000" stroke-opacity="0" stroke-width="3" fill="#fff" fill-opacity="0"/><g><use xlink:href="#an" transform="matrix(1,0,0,1,885,815.0950520833336) translate(0 17.77777777777778)"/><use xlink:href="#F" transform="matrix(1,0,0,1,885,815.0950520833336) translate(80.2469135802469 17.77777777777778)"/><use xlink:href="#ao" transform="matrix(1,0,0,1,885,815.0950520833336) translate(122.2222222222222 17.77777777777778)"/><use xlink:href="#ap" transform="matrix(1,0,0,1,885,815.0950520833336) translate(0 44.44444444444444)"/><use xlink:href="#b" transform="matrix(1,0,0,1,885,815.0950520833336) translate(35.80246913580247 44.44444444444444)"/><use xlink:href="#aq" transform="matrix(1,0,0,1,885,815.0950520833336) translate(60.49382716049382 44.44444444444444)"/><use xlink:href="#ar" transform="matrix(1,0,0,1,885,815.0950520833336) translate(107.34567901234567 44.44444444444444)"/><use xlink:href="#as" transform="matrix(1,0,0,1,885,815.0950520833336) translate(0 71.11111111111111)"/><use xlink:href="#at" transform="matrix(1,0,0,1,885,815.0950520833336) translate(30.864197530864196 71.11111111111111)"/><use xlink:href="#au" transform="matrix(1,0,0,1,885,815.0950520833336) translate(67.90123456790124 71.11111111111111)"/><use xlink:href="#av" transform="matrix(1,0,0,1,885,815.0950520833336) translate(0 97.77777777777777)"/></g><path d="M605.28 835.04c0-3.32 2.7-6 6-6h88c3.32 0 6 2.68 6 6v48c0 3.3-2.68 6-6 6h-88c-3.3 0-6-2.7-6-6z" stroke="#000" stroke-opacity="0" stroke-width="3" fill="#fff" fill-opacity="0"/><g><use xlink:href="#aw" transform="matrix(1,0,0,1,610.2831076136695,834.0366753472223) translate(2.3263888888889 29.84375)"/><use xlink:href="#ax" transform="matrix(1,0,0,1,610.2831076136695,834.0366753472223) translate(45.00000000000001 29.84375)"/><use xlink:href="#ay" transform="matrix(1,0,0,1,610.2831076136695,834.0366753472223) translate(77.00520833333333 29.84375)"/></g><path d="M1332 207.53c26.5 0 48 17.9 48 40s-21.5 40-48 40h-144c-26.5 0-48-17.9-48-40s21.5-40 48-40z" stroke="#5e5e5e" stroke-width="3" fill="#fff"/><g><use xlink:href="#az" transform="matrix(1,0,0,1,1145,212.52625868055543) translate(21.65147569444443 42.1796875)"/><use xlink:href="#aA" transform="matrix(1,0,0,1,1145,212.52625868055543) translate(88.32899305555554 42.1796875)"/></g><path d="M302.5 598.65l4.24-.08 5-.32 4.84-.5 4.67-.7 4.54-.86 4.42-1.05 4.34-1.2 4.28-1.4 4.24-1.58 4.22-1.77 4.2-2 4.24-2.2 4.27-2.47 4.35-2.75 4.43-3.08 4.55-3.45 4.72-3.9 4.92-4.45 5.2-5.1 5.57-5.93 6.07-7.04 6.8-8.58 7.93-10.93 10.14-15.3 19.43-32.42 31.23-52.94 10.14-15.3 7.93-10.94 6.8-8.57 6.06-7.04 5.56-5.93 5.2-5.1 4.93-4.44 4.72-3.9 4.55-3.46 4.43-3.08 4.34-2.76 4.26-2.47 4.23-2.2 4.2-2 4.22-1.76 4.24-1.57 4.28-1.4 4.34-1.2 4.43-1.04 4.55-.88 1.32-.2" stroke="#999" stroke-width="2" fill="none"/><path d="M302.55 599.65l-1.05.03v-2l1-.03" fill="#999"/><path d="M595.27 340.25l-13.86 5.72-.7-9.24z" stroke="#999" stroke-width="2" fill="#999"/><path d="M322.5 668.7l4.1.08 4.85.3 4.68.5 4.5.66 4.4.84 4.26 1 4.17 1.17 4.12 1.34 4.06 1.5 4.04 1.7 4.04 1.9 4.05 2.12 4.08 2.36 4.15 2.64 4.24 2.94 4.36 3.32 4.52 3.74 4.73 4.26 5 4.9 5.4 5.76 5.92 6.86 6.7 8.48 8.07 11.1 11.15 16.87 46.9 75.43 8.07 11.12 6.7 8.48 5.92 6.86 5.4 5.74 5 4.9 4.73 4.28 4.52 3.74 4.36 3.3 4.24 2.96 4.15 2.63 4.1 2.36 4.04 2.1 4.04 1.92 4.04 1.7 4.07 1.5 4.13 1.35 4.18 1.17 4.28 1 4.38.83.72.1" stroke="#999" stroke-width="2" fill="none"/><path d="M322.55 667.7l-.04 2-1-.02v-2" fill="#999"/><path d="M595.27 899.74l-14.58 3.5.72-9.25z" stroke="#999" stroke-width="2" fill="#999"/><path d="M477.95 989.9l2.55 1.06 3.23 1.53 3 1.57 2.85 1.64 2.67 1.72 2.53 1.76 2.4 1.83 2.3 1.9 2.18 2 2.1 2.06 2.02 2.16 1.95 2.26 1.88 2.4 1.83 2.5 1.76 2.67 1.7 2.83 1.66 3.04 1.6 3.26 1.57 3.53 1.5 3.84 1.46 4.2 1.38 4.64 1.32 5.18 1.22 5.83 1.1 6.65.97 7.74.74 9.16.44 11.2-.05 14.28-.9 19.7-2.93 33.25-16.45 149-1.36 30.44-.08 24.3.8 20.57 1.48 18 2 16.06 2.42 14.55 2.8 13.36 3.15 12.37 3.46 11.54 3.75 10.84 4.03 10.27 4.33 9.75 4.6 9.32 4.9 8.94 5.2 8.62 5.5 8.34 5.88 8.1 6.24 7.9 6.64 7.72 7.08 7.57 2.6 2.56" stroke="#999" stroke-width="2" fill="none"/><path d="M478.37 988.97l-.56 1.3-.77-.78-2.92-.8.56-1.3" fill="#999"/><path d="M596.13 1577.8l-13.6-6.34 6.32-6.78z" stroke="#999" stroke-width="2" fill="#999"/><path d="M900 1350c0 16.57-13.43 30-30 30H650c-16.57 0-30-13.43-30-30s13.43-30 30-30h220c16.57 0 30 13.43 30 30z" stroke="#d4a01c" stroke-width="3" fill="#fff"/><g><use xlink:href="#aB" transform="matrix(1,0,0,1,625,1325) translate(41.651475694444414 30.2734375)"/></g><defs><path fill="#333" d="M87 75C49 33 22-17 22-94c0-76 28-126 65-167h31c-38 41-64 92-64 168S80 34 118 75H87" id="aC"/><path fill="#333" d="M185-189c-5-48-123-54-124 2 14 75 158 14 163 119 3 78-121 87-175 55-17-10-28-26-33-46l33-7c5 56 141 63 141-1 0-78-155-14-162-118-5-82 145-84 179-34 5 7 8 16 11 25" id="aD"/><path fill="#333" d="M24-231v-30h32v30H24zM24 0v-190h32V0H24" id="aE"/><path fill="#333" d="M210-169c-67 3-38 105-44 169h-31v-121c0-29-5-50-35-48C34-165 62-65 56 0H25l-1-190h30c1 10-1 24 2 32 10-44 99-50 107 0 11-21 27-35 58-36 85-2 47 119 55 194h-31v-121c0-29-5-49-35-48" id="aF"/><path fill="#333" d="M24 0v-261h32V0H24" id="aG"/><path fill="#333" d="M141-36C126-15 110 5 73 4 37 3 15-17 15-53c-1-64 63-63 125-63 3-35-9-54-41-54-24 1-41 7-42 31l-33-3c5-37 33-52 76-52 45 0 72 20 72 64v82c-1 20 7 32 28 27v20c-31 9-61-2-59-35zM48-53c0 20 12 33 32 33 41-3 63-29 60-74-43 2-92-5-92 41" id="aH"/><path fill="#333" d="M114-163C36-179 61-72 57 0H25l-1-190h30c1 12-1 29 2 39 6-27 23-49 58-41v29" id="aI"/><g id="a"><use transform="matrix(0.06172839506172839,0,0,0.06172839506172839,0,0)" xlink:href="#aC"/><use transform="matrix(0.06172839506172839,0,0,0.06172839506172839,7.345679012345679,0)" xlink:href="#aD"/><use transform="matrix(0.06172839506172839,0,0,0.06172839506172839,22.160493827160494,0)" xlink:href="#aE"/><use transform="matrix(0.06172839506172839,0,0,0.06172839506172839,27.037037037037038,0)" xlink:href="#aF"/><use transform="matrix(0.06172839506172839,0,0,0.06172839506172839,45.49382716049382,0)" xlink:href="#aE"/><use transform="matrix(0.06172839506172839,0,0,0.06172839506172839,50.37037037037037,0)" xlink:href="#aG"/><use transform="matrix(0.06172839506172839,0,0,0.06172839506172839,55.24691358024691,0)" xlink:href="#aH"/><use transform="matrix(0.06172839506172839,0,0,0.06172839506172839,67.5925925925926,0)" xlink:href="#aI"/></g><path fill="#333" d="M59-47c-2 24 18 29 38 22v24C64 9 27 4 27-40v-127H5v-23h24l9-43h21v43h35v23H59v120" id="aJ"/><path fill="#333" d="M100-194c62-1 85 37 85 99 1 63-27 99-86 99S16-35 15-95c0-66 28-99 85-99zM99-20c44 1 53-31 53-75 0-43-8-75-51-75s-53 32-53 75 10 74 51 75" id="aK"/><g id="b"><use transform="matrix(0.06172839506172839,0,0,0.06172839506172839,0,0)" xlink:href="#aJ"/><use transform="matrix(0.06172839506172839,0,0,0.06172839506172839,6.172839506172839,0)" xlink:href="#aK"/></g><path fill="#333" d="M232-93c-1 65-40 97-104 97C67 4 28-28 28-90v-158h33c8 89-33 224 67 224 102 0 64-133 71-224h33v155" id="aL"/><path fill="#333" d="M117-194c89-4 53 116 60 194h-32v-121c0-31-8-49-39-48C34-167 62-67 57 0H25l-1-190h30c1 10-1 24 2 32 11-22 29-35 61-36" id="aM"/><path fill="#333" d="M179-190L93 31C79 59 56 82 12 73V49c39 6 53-20 64-50L1-190h34L92-34l54-156h33" id="aN"/><path fill="#333" d="M47-170H22l-4-78h33" id="aO"/><path fill="#333" d="M135-143c-3-34-86-38-87 0 15 53 115 12 119 90S17 21 10-45l28-5c4 36 97 45 98 0-10-56-113-15-118-90-4-57 82-63 122-42 12 7 21 19 24 35" id="aP"/><g id="c"><use transform="matrix(0.06172839506172839,0,0,0.06172839506172839,0,0)" xlink:href="#aL"/><use transform="matrix(0.06172839506172839,0,0,0.06172839506172839,15.987654320987653,0)" xlink:href="#aM"/><use transform="matrix(0.06172839506172839,0,0,0.06172839506172839,28.333333333333332,0)" xlink:href="#aE"/><use transform="matrix(0.06172839506172839,0,0,0.06172839506172839,33.20987654320987,0)" xlink:href="#aJ"/><use transform="matrix(0.06172839506172839,0,0,0.06172839506172839,39.382716049382715,0)" xlink:href="#aN"/><use transform="matrix(0.06172839506172839,0,0,0.06172839506172839,50.49382716049382,0)" xlink:href="#aO"/><use transform="matrix(0.06172839506172839,0,0,0.06172839506172839,54.691358024691354,0)" xlink:href="#aP"/></g><path fill="#333" d="M614-1226c-167 1-283 53-283 213 0 183 186 193 334 234 230 63 463 120 463 409 0 286-219 387-518 390C309 23 131-98 79-338l185-37c34 165 149 248 351 246 184-2 324-58 324-238 0-203-207-221-372-266-210-57-422-111-422-377 0-267 201-356 470-360 279-5 430 101 480 324l-188 33c-28-141-121-215-293-213" id="aQ"/><path fill="#333" d="M682 16c-209 0-323-80-324-285v-671H190v-142h170l58-282h120v282h432v142H538v652c2 114 60 155 182 155 106 0 209-16 297-34v137C921-4 806 16 682 16" id="aR"/><path fill="#333" d="M1000-272c3 95 12 159 101 161 21 0 41-3 59-7V-6c-44 10-86 16-139 16-141 2-191-84-197-217h-6C748-76 648 20 446 20c-207 0-318-120-318-322 0-266 194-348 454-354l236-4c12-191-40-305-222-305-140 0-220 47-232 172l-188-17c33-204 181-292 423-292 255 0 401 118 401 364v466zm-683-27c0 109 63 184 175 182 166-3 259-96 306-217 24-65 20-120 20-200-232 7-501-28-501 235" id="aS"/><path fill="#333" d="M839-1102c70 0 148 7 206 17v167c-112-18-268-36-363 15-129 69-208 203-208 395V0H294c-10-367 32-789-52-1082h171c21 75 41 161 48 250h5c67-152 152-270 373-270" id="aT"/><path fill="#333" d="M891-1484c-201 251-362 514-362 954 0 441 161 704 362 955H701C500 176 342-90 342-532c0-440 159-704 359-952h190" id="aU"/><path fill="#333" d="M528-1484c201 248 357 511 357 952 0 442-156 709-357 957H336C537 174 700-89 700-530c0-440-163-703-364-954h192" id="aV"/><path fill="#333" d="M68-38c1 34 0 65-14 84H32c9-13 17-26 17-46H33v-38h35" id="aW"/><g id="d"><use transform="matrix(0.010850694444444444,0,0,0.010850694444444444,0,0)" xlink:href="#aQ"/><use transform="matrix(0.010850694444444444,0,0,0.010850694444444444,13.335503472222221,0)" xlink:href="#aR"/><use transform="matrix(0.010850694444444444,0,0,0.010850694444444444,26.671006944444443,0)" xlink:href="#aS"/><use transform="matrix(0.010850694444444444,0,0,0.010850694444444444,40.006510416666664,0)" xlink:href="#aT"/><use transform="matrix(0.010850694444444444,0,0,0.010850694444444444,53.342013888888886,0)" xlink:href="#aR"/><use transform="matrix(0.010850694444444444,0,0,0.010850694444444444,66.67751736111111,0)" xlink:href="#aU"/><use transform="matrix(0.010850694444444444,0,0,0.010850694444444444,80.01302083333334,0)" xlink:href="#aV"/><use transform="matrix(0.06172839506172839,0,0,0.06172839506172839,93.34852430555557,0)" xlink:href="#aW"/></g><path fill="#333" d="M604-135c236 0 291-142 291-376v-838h190v859c5 340-142 510-480 510-326 0-463-164-463-492v-877h191v851c-3 222 46 363 271 363" id="aX"/><path fill="#333" d="M698-1104c312 3 392 244 392 558 0 315-82 566-392 566-169 0-277-65-331-184h-5c8 188 2 394 4 589H185V-858c0-76-1-156-6-224h175c6 52 9 120 10 178h4c58-122 150-202 330-200zm-49 991c225 0 255-203 255-433 0-225-32-419-253-419-236 0-285 192-285 441 0 237 53 411 283 411" id="aY"/><path fill="#333" d="M865-914c-3-187-2-380-2-570h180v1261c0 76 1 155 6 223H877c-8-49-9-116-10-174h-5C801-44 708 26 530 26c-135 0-234-46-297-139s-95-232-95-419c0-377 131-566 392-566 176 0 271 63 335 184zm-286-51c-222 0-255 197-255 427 0 229 31 425 253 425 237 0 286-195 286-441 0-238-52-411-284-411" id="aZ"/><path fill="#333" d="M617-1102c355 0 481 238 477 599H322c5 222 84 388 301 388 144 0 244-59 284-166l158 45C1002-72 854 20 623 20c-342 0-490-220-490-568 0-346 151-554 484-554zm291 461c-18-192-90-328-289-328-194 0-287 128-295 328h584" id="ba"/><g id="e"><use transform="matrix(0.010850694444444444,0,0,0.010850694444444444,0,0)" xlink:href="#aX"/><use transform="matrix(0.010850694444444444,0,0,0.010850694444444444,13.335503472222221,0)" xlink:href="#aY"/><use transform="matrix(0.010850694444444444,0,0,0.010850694444444444,26.671006944444443,0)" xlink:href="#aZ"/><use transform="matrix(0.010850694444444444,0,0,0.010850694444444444,40.006510416666664,0)" xlink:href="#aS"/><use transform="matrix(0.010850694444444444,0,0,0.010850694444444444,53.342013888888886,0)" xlink:href="#aR"/><use transform="matrix(0.010850694444444444,0,0,0.010850694444444444,66.67751736111111,0)" xlink:href="#ba"/><use transform="matrix(0.010850694444444444,0,0,0.010850694444444444,80.01302083333334,0)" xlink:href="#aU"/><use transform="matrix(0.010850694444444444,0,0,0.010850694444444444,93.34852430555557,0)" xlink:href="#aV"/></g><path fill="#333" d="M101-234c-31-9-42 10-38 44h38v23H63V0H32v-167H5v-23h27c-7-52 17-82 69-68v24" id="bb"/><g id="f"><use transform="matrix(0.06172839506172839,0,0,0.06172839506172839,0,0)" xlink:href="#bb"/><use transform="matrix(0.06172839506172839,0,0,0.06172839506172839,6.172839506172839,0)" xlink:href="#aK"/><use transform="matrix(0.06172839506172839,0,0,0.06172839506172839,18.51851851851852,0)" xlink:href="#aI"/></g><path fill="#333" d="M240 0l2-218c-23 76-54 145-80 218h-23L58-218 59 0H30v-248h44l77 211c21-75 51-140 76-211h43V0h-30" id="bc"/><path fill="#333" d="M160-131c35 5 61 23 61 61C221 17 115-2 30 0v-248c76 3 177-17 177 60 0 33-19 50-47 57zm-97-11c50-1 110 9 110-42 0-47-63-36-110-37v79zm0 115c55-2 124 14 124-45 0-56-70-42-124-44v89" id="bd"/><path fill="#333" d="M100-194c63 0 86 42 84 106H49c0 40 14 67 53 68 26 1 43-12 49-29l28 8c-11 28-37 45-77 45C44 4 14-33 15-96c1-61 26-98 85-98zm52 81c6-60-76-77-97-28-3 7-6 17-6 28h103" id="be"/><path fill="#333" d="M106-169C34-169 62-67 57 0H25v-261h32l-1 103c12-21 28-36 61-36 89 0 53 116 60 194h-32v-121c2-32-8-49-39-48" id="bf"/><path fill="#333" d="M108 0H70L1-190h34L89-25l56-165h34" id="bg"/><path fill="#333" d="M84 4C-5 8 30-112 23-190h32v120c0 31 7 50 39 49 72-2 45-101 50-169h31l1 190h-30c-1-10 1-25-2-33-11 22-28 36-60 37" id="bh"/><path fill="#333" d="M33-261c38 41 65 92 65 168S71 34 33 75H2C39 34 66-17 66-93S39-220 2-261h31" id="bi"/><g id="g"><use transform="matrix(0.06172839506172839,0,0,0.06172839506172839,0,0)" xlink:href="#bc"/><use transform="matrix(0.06172839506172839,0,0,0.06172839506172839,18.456790123456788,0)" xlink:href="#aK"/><use transform="matrix(0.06172839506172839,0,0,0.06172839506172839,30.80246913580247,0)" xlink:href="#aM"/><use transform="matrix(0.06172839506172839,0,0,0.06172839506172839,43.148148148148145,0)" xlink:href="#aK"/><use transform="matrix(0.06172839506172839,0,0,0.06172839506172839,55.49382716049382,0)" xlink:href="#bd"/><use transform="matrix(0.06172839506172839,0,0,0.06172839506172839,70.30864197530863,0)" xlink:href="#be"/><use transform="matrix(0.06172839506172839,0,0,0.06172839506172839,82.65432098765432,0)" xlink:href="#bf"/><use transform="matrix(0.06172839506172839,0,0,0.06172839506172839,95,0)" xlink:href="#aH"/><use transform="matrix(0.06172839506172839,0,0,0.06172839506172839,107.34567901234568,0)" xlink:href="#bg"/><use transform="matrix(0.06172839506172839,0,0,0.06172839506172839,118.4567901234568,0)" xlink:href="#aE"/><use transform="matrix(0.06172839506172839,0,0,0.06172839506172839,123.33333333333334,0)" xlink:href="#aK"/><use transform="matrix(0.06172839506172839,0,0,0.06172839506172839,135.679012345679,0)" xlink:href="#bh"/><use transform="matrix(0.06172839506172839,0,0,0.06172839506172839,148.02469135802468,0)" xlink:href="#aI"/><use transform="matrix(0.06172839506172839,0,0,0.06172839506172839,155.37037037037035,0)" xlink:href="#aP"/><use transform="matrix(0.06172839506172839,0,0,0.06172839506172839,166.48148148148147,0)" xlink:href="#bi"/></g><path fill="#333" d="M96-169c-40 0-48 33-48 73s9 75 48 75c24 0 41-14 43-38l32 2c-6 37-31 61-74 61-59 0-76-41-82-99-10-93 101-131 147-64 4 7 5 14 7 22l-32 3c-4-21-16-35-41-35" id="bj"/><path fill="#333" d="M143 0L79-87 56-68V0H24v-261h32v163l83-92h37l-77 82L181 0h-38" id="bk"/><g id="h"><use transform="matrix(0.07407407407407408,0,0,0.07407407407407408,0,0)" xlink:href="#bd"/><use transform="matrix(0.07407407407407408,0,0,0.07407407407407408,17.77777777777778,0)" xlink:href="#aG"/><use transform="matrix(0.07407407407407408,0,0,0.07407407407407408,23.629629629629633,0)" xlink:href="#aK"/><use transform="matrix(0.07407407407407408,0,0,0.07407407407407408,38.44444444444445,0)" xlink:href="#bj"/><use transform="matrix(0.07407407407407408,0,0,0.07407407407407408,51.777777777777786,0)" xlink:href="#bk"/></g><path fill="#333" d="M127-220V0H93v-220H8v-28h204v28h-85" id="bl"/><g id="i"><use transform="matrix(0.07407407407407408,0,0,0.07407407407407408,0,0)" xlink:href="#bl"/><use transform="matrix(0.07407407407407408,0,0,0.07407407407407408,15.259259259259261,0)" xlink:href="#aI"/><use transform="matrix(0.07407407407407408,0,0,0.07407407407407408,24.074074074074076,0)" xlink:href="#aE"/><use transform="matrix(0.07407407407407408,0,0,0.07407407407407408,29.92592592592593,0)" xlink:href="#aH"/><use transform="matrix(0.07407407407407408,0,0,0.07407407407407408,44.74074074074075,0)" xlink:href="#aG"/></g><path fill="#333" d="M30-248c87 1 191-15 191 75 0 78-77 80-158 76V0H30v-248zm33 125c57 0 124 11 124-50 0-59-68-47-124-48v98" id="bm"/><g id="j"><use transform="matrix(0.07407407407407408,0,0,0.07407407407407408,0,0)" xlink:href="#bm"/><use transform="matrix(0.07407407407407408,0,0,0.07407407407407408,17.77777777777778,0)" xlink:href="#bf"/><use transform="matrix(0.07407407407407408,0,0,0.07407407407407408,32.592592592592595,0)" xlink:href="#aH"/><use transform="matrix(0.07407407407407408,0,0,0.07407407407407408,47.40740740740741,0)" xlink:href="#aP"/><use transform="matrix(0.07407407407407408,0,0,0.07407407407407408,60.74074074074075,0)" xlink:href="#be"/></g><path fill="#333" d="M921-144c48 0 63-16 109-33l26 67C972-60 873-11 778 28 690 64 626 15 633-76c14-188 69-373 82-564 6-81-19-128-90-98-110 46-190 142-221 273-26 111-60 261-56 402C282-30 187 7 122 41L82 3c43-224 106-458 106-705 0-38-1-69-38-67-36 2-67 16-99 26l-19-69c107-43 233-100 355-124 65 2 45 93 45 161 0 18-3 35-5 52 73-73 144-126 215-161s136-52 196-52c102 0 136 58 132 159-7 202-85 376-85 574 0 38 5 59 36 59" id="bn"/><path fill="#333" d="M188-1075c166-44 334-108 482-170l35 42L565-173c8 46 58 53 106 69 28 9 66 15 111 21L771 0H69l11-83c101-14 185-25 248-67 10-7 14-16 15-23 34-267 77-527 105-799 7-69-78-49-139-42-29 3-64 11-106 20" id="bo"/><g id="k"><use transform="matrix(0.010850694444444444,0,0,0.010850694444444444,0,0)" xlink:href="#bn"/><use transform="matrix(0.00759548611111111,0,0,0.00759548611111111,11.71875,3.398980034722222)" xlink:href="#bo"/></g><path fill="#333" d="M115-194c55 1 70 41 70 98S169 2 115 4C84 4 66-9 55-30l1 105H24l-1-265h31l2 30c10-21 28-34 59-34zm-8 174c40 0 45-34 45-75s-6-73-45-74c-42 0-51 32-51 76 0 43 10 73 51 73" id="bp"/><path fill="#333" d="M33 0v-38h34V0H33" id="bq"/><g id="l"><use transform="matrix(0.06172839506172839,0,0,0.06172839506172839,0,0)" xlink:href="#aI"/><use transform="matrix(0.06172839506172839,0,0,0.06172839506172839,7.345679012345679,0)" xlink:href="#be"/><use transform="matrix(0.06172839506172839,0,0,0.06172839506172839,19.691358024691358,0)" xlink:href="#bp"/><use transform="matrix(0.06172839506172839,0,0,0.06172839506172839,32.03703703703704,0)" xlink:href="#aP"/><use transform="matrix(0.06172839506172839,0,0,0.06172839506172839,43.14814814814815,0)" xlink:href="#bq"/></g><path fill="#333" d="M438-1206c183-67 456-31 449 185-4 133-58 209-123 297-146 200-322 365-508 553h360c56-6 74-57 93-101 13-29 21-64 28-102l74 19L748 0H8L-8-74c197-200 361-369 506-570 81-112 140-191 148-333 5-91-39-142-125-142-103 0-135 95-138 200-57 29-136 53-210 64l-24-68c33-144 156-234 289-283" id="br"/><g id="m"><use transform="matrix(0.010850694444444444,0,0,0.010850694444444444,0,0)" xlink:href="#bn"/><use transform="matrix(0.00759548611111111,0,0,0.00759548611111111,11.71875,3.398980034722222)" xlink:href="#br"/></g><path fill="#333" d="M556-1235c172 1 282 70 282 234 0 167-109 248-229 303 135 20 205 121 205 270C814-209 680-77 519-6c-108 48-254 47-353-6C106-44 47-85 3-134l54-97c81 74 150 121 277 121 160 0 232-124 238-291 6-149-94-225-246-193l-6-90c156-42 281-120 281-302 0-78-25-133-101-133-85 0-122 69-119 161-59 31-133 60-214 69l-24-61c43-145 165-228 309-272 33-10 68-13 104-13" id="bs"/><g id="n"><use transform="matrix(0.010850694444444444,0,0,0.010850694444444444,0,0)" xlink:href="#bn"/><use transform="matrix(0.00759548611111111,0,0,0.00759548611111111,11.71875,3.398980034722222)" xlink:href="#bs"/></g><g id="o"><use transform="matrix(0.07407407407407407,0,0,0.07407407407407407,0,0)" xlink:href="#bm"/><use transform="matrix(0.07407407407407407,0,0,0.07407407407407407,17.77777777777778,0)" xlink:href="#bf"/><use transform="matrix(0.07407407407407407,0,0,0.07407407407407407,32.592592592592595,0)" xlink:href="#aH"/><use transform="matrix(0.07407407407407407,0,0,0.07407407407407407,47.407407407407405,0)" xlink:href="#aP"/><use transform="matrix(0.07407407407407407,0,0,0.07407407407407407,60.74074074074074,0)" xlink:href="#be"/></g><path fill="#333" d="M162 0v-1349h919v156H353v422h668v154H353v461h769V0H162" id="bt"/><path fill="#333" d="M706-1102c241 0 344 136 343 381V0H868v-695c1-168-57-273-220-268-190 6-283 138-283 336V0H185c-3-360 6-732-6-1082h170c4 54 7 126 8 185h3c63-121 164-204 346-205" id="bu"/><g id="p"><use transform="matrix(0.010850694444444444,0,0,0.010850694444444444,0,0)" xlink:href="#bt"/><use transform="matrix(0.010850694444444444,0,0,0.010850694444444444,13.335503472222221,0)" xlink:href="#bu"/><use transform="matrix(0.010850694444444444,0,0,0.010850694444444444,26.671006944444443,0)" xlink:href="#aR"/><use transform="matrix(0.010850694444444444,0,0,0.010850694444444444,40.006510416666664,0)" xlink:href="#ba"/><use transform="matrix(0.010850694444444444,0,0,0.010850694444444444,53.342013888888886,0)" xlink:href="#aT"/><use transform="matrix(0.010850694444444444,0,0,0.010850694444444444,66.67751736111111,0)" xlink:href="#aU"/><use transform="matrix(0.010850694444444444,0,0,0.010850694444444444,80.01302083333334,0)" xlink:href="#aV"/></g><path fill="#333" d="M237 0v-1349h191v1193h672V0H237" id="bv"/><path fill="#333" d="M615-1102c343 0 484 203 482 560-1 347-147 562-488 562-336 0-475-219-479-562-4-349 156-560 485-560zm-8 989c240 0 301-180 301-429 0-245-55-427-290-427-236 0-299 181-299 427 0 243 61 429 288 429" id="bw"/><g id="q"><use transform="matrix(0.010850694444444444,0,0,0.010850694444444444,0,0)" xlink:href="#bv"/><use transform="matrix(0.010850694444444444,0,0,0.010850694444444444,13.335503472222221,0)" xlink:href="#bw"/><use transform="matrix(0.010850694444444444,0,0,0.010850694444444444,26.671006944444443,0)" xlink:href="#bw"/><use transform="matrix(0.010850694444444444,0,0,0.010850694444444444,40.006510416666664,0)" xlink:href="#aY"/><use transform="matrix(0.010850694444444444,0,0,0.010850694444444444,53.342013888888886,0)" xlink:href="#aU"/><use transform="matrix(0.010850694444444444,0,0,0.010850694444444444,66.67751736111111,0)" xlink:href="#aV"/></g><path fill="#333" d="M102-681c0-398 126-689 513-689 165 0 291 58 379 174s132 287 132 515c-1 318-88 554-298 657-123 61-317 58-438-3-206-104-288-341-288-654zm749 406c94-160 97-656-5-807-57-85-130-132-231-132-104 0-178 47-234 132-101 153-99 655 1 809 57 89 130 138 232 138 109 0 184-49 237-140" id="bx"/><path fill="#333" d="M932 0L611-444 288 0H94l415-556-397-526h199l300 421 298-421h201L713-558 1133 0H932" id="by"/><path fill="#333" d="M745-142h380V0H143v-142h422v-798H246v-142h499v940zM545-1292v-192h200v192H545" id="bz"/><g id="r"><use transform="matrix(0.010850694444444444,0,0,0.010850694444444444,0,0)" xlink:href="#bx"/><use transform="matrix(0.010850694444444444,0,0,0.010850694444444444,13.335503472222221,0)" xlink:href="#bu"/><use transform="matrix(0.010850694444444444,0,0,0.010850694444444444,26.671006944444443,0)" xlink:href="#bt"/><use transform="matrix(0.010850694444444444,0,0,0.010850694444444444,40.006510416666664,0)" xlink:href="#by"/><use transform="matrix(0.010850694444444444,0,0,0.010850694444444444,53.342013888888886,0)" xlink:href="#bz"/><use transform="matrix(0.010850694444444444,0,0,0.010850694444444444,66.67751736111111,0)" xlink:href="#aR"/><use transform="matrix(0.010850694444444444,0,0,0.010850694444444444,80.01302083333334,0)" xlink:href="#aU"/><use transform="matrix(0.010850694444444444,0,0,0.010850694444444444,93.34852430555557,0)" xlink:href="#aV"/></g><path fill="#333" d="M30 0v-248h187v28H63v79h144v27H63v87h162V0H30" id="bA"/><g id="s"><use transform="matrix(0.06172839506172839,0,0,0.06172839506172839,0,0)" xlink:href="#bA"/><use transform="matrix(0.06172839506172839,0,0,0.06172839506172839,14.814814814814813,0)" xlink:href="#bg"/><use transform="matrix(0.06172839506172839,0,0,0.06172839506172839,25.925925925925924,0)" xlink:href="#be"/><use transform="matrix(0.06172839506172839,0,0,0.06172839506172839,38.2716049382716,0)" xlink:href="#aI"/><use transform="matrix(0.06172839506172839,0,0,0.06172839506172839,45.61728395061728,0)" xlink:href="#aN"/></g><g id="t"><use transform="matrix(0.06172839506172839,0,0,0.06172839506172839,0,0)" xlink:href="#bb"/><use transform="matrix(0.06172839506172839,0,0,0.06172839506172839,6.172839506172839,0)" xlink:href="#aI"/><use transform="matrix(0.06172839506172839,0,0,0.06172839506172839,13.518518518518519,0)" xlink:href="#aH"/><use transform="matrix(0.06172839506172839,0,0,0.06172839506172839,25.864197530864196,0)" xlink:href="#aF"/><use transform="matrix(0.06172839506172839,0,0,0.06172839506172839,44.32098765432099,0)" xlink:href="#be"/></g><g id="u"><use transform="matrix(0.06172839506172839,0,0,0.06172839506172839,0,0)" xlink:href="#bh"/><use transform="matrix(0.06172839506172839,0,0,0.06172839506172839,12.345679012345679,0)" xlink:href="#aM"/><use transform="matrix(0.06172839506172839,0,0,0.06172839506172839,24.691358024691358,0)" xlink:href="#aJ"/><use transform="matrix(0.06172839506172839,0,0,0.06172839506172839,30.864197530864196,0)" xlink:href="#aE"/><use transform="matrix(0.06172839506172839,0,0,0.06172839506172839,35.74074074074074,0)" xlink:href="#aG"/></g><path fill="#333" d="M85-194c31 0 48 13 60 33l-1-100h32l1 261h-30c-2-10 0-23-3-31C134-8 116 4 85 4 32 4 16-35 15-94c0-66 23-100 70-100zm9 24c-40 0-46 34-46 75 0 40 6 74 45 74 42 0 51-32 51-76 0-42-9-74-50-73" id="bB"/><g id="v"><use transform="matrix(0.06172839506172839,0,0,0.06172839506172839,0,0)" xlink:href="#bB"/><use transform="matrix(0.06172839506172839,0,0,0.06172839506172839,12.345679012345679,0)" xlink:href="#bh"/><use transform="matrix(0.06172839506172839,0,0,0.06172839506172839,24.691358024691358,0)" xlink:href="#aI"/><use transform="matrix(0.06172839506172839,0,0,0.06172839506172839,32.03703703703704,0)" xlink:href="#aH"/><use transform="matrix(0.06172839506172839,0,0,0.06172839506172839,44.382716049382715,0)" xlink:href="#aJ"/><use transform="matrix(0.06172839506172839,0,0,0.06172839506172839,50.55555555555556,0)" xlink:href="#aE"/><use transform="matrix(0.06172839506172839,0,0,0.06172839506172839,55.4320987654321,0)" xlink:href="#aK"/><use transform="matrix(0.06172839506172839,0,0,0.06172839506172839,67.77777777777779,0)" xlink:href="#aM"/></g><path fill="#333" d="M641-716c-33-32-71-78-129-78-136 0-183 126-220 237-42 127-50 383 77 401 67-17 102-68 146-120 24-28 47-64 74-105 14-104 35-224 52-335zm184 528c22 73 96 33 146 16l17 68C916-56 842-5 761 29 666 69 622-10 598-86c-10-31-16-70-19-115-54 78-107 138-161 179-81 60-141 87-229 42C87-32 38-155 38-315c0-261 131-419 294-527 75-49 165-94 283-94 23 0 40 11 58 20 17-121 40-242 44-370 1-40-7-70-45-67-36 3-67 17-100 27l-16-69c106-47 218-125 347-125 51 0 73 26 70 82-24 391-163 736-163 1124 0 57 7 98 15 126" id="bC"/><use transform="matrix(0.010850694444444444,0,0,0.010850694444444444,0,0)" xlink:href="#bC" id="w"/><path fill="#333" d="M30-147c31-64 166-65 159 27C183-49 158 1 86 4 9 8 1-88 30-147zM88-20c53 0 68-48 68-100 0-31-11-51-44-50-52 1-68 46-68 97 0 32 13 53 44 53" id="bD"/><path fill="#333" d="M66-151c12-25 30-51 66-40l-6 26C45-176 58-65 38 0H6l36-190h30" id="bE"/><g id="x"><use transform="matrix(0.06172839506172839,0,0,0.06172839506172839,0,0)" xlink:href="#bD"/><use transform="matrix(0.06172839506172839,0,0,0.06172839506172839,12.345679012345679,0)" xlink:href="#bE"/></g><g id="y"><use transform="matrix(0.06172839506172839,0,0,0.06172839506172839,0,0)" xlink:href="#bh"/><use transform="matrix(0.06172839506172839,0,0,0.06172839506172839,12.345679012345679,0)" xlink:href="#aM"/><use transform="matrix(0.06172839506172839,0,0,0.06172839506172839,24.691358024691358,0)" xlink:href="#aJ"/><use transform="matrix(0.06172839506172839,0,0,0.06172839506172839,30.864197530864196,0)" xlink:href="#aE"/><use transform="matrix(0.06172839506172839,0,0,0.06172839506172839,35.74074074074074,0)" xlink:href="#aG"/></g><path fill="#333" d="M912-211c-10-84-18-177-18-274v-864h172V0H836L316-1130c7 79 16 167 16 254V0H162v-1349h222" id="bF"/><path fill="#333" d="M622-1349c296 4 497 117 497 404 0 282-193 424-485 431H353V0H162v-1349h460zm-15 684c195-3 320-88 320-277 0-184-129-255-328-254H353v531h254" id="bG"/><path fill="#333" d="M648-963c-190 6-283 138-283 336V0H185v-1484h181c-2 197 6 404-9 587h3c62-120 159-205 339-205 242 0 351 135 350 381V0H868v-695c1-168-57-273-220-268" id="bH"/><path fill="#333" d="M873-819c-18-114-119-146-250-146-163 0-245 50-245 151 0 151 170 148 294 185 182 54 388 94 388 320 0 240-189 325-439 329-245 4-410-69-454-268l159-31c24 133 136 168 295 165 144-2 270-31 270-171 0-164-195-160-331-202-167-52-350-87-350-299 0-218 173-315 413-313 220 2 373 77 412 260" id="bI"/><g id="z"><use transform="matrix(0.010850694444444444,0,0,0.010850694444444444,0,0)" xlink:href="#bF"/><use transform="matrix(0.010850694444444444,0,0,0.010850694444444444,13.335503472222221,0)" xlink:href="#ba"/><use transform="matrix(0.010850694444444444,0,0,0.010850694444444444,26.671006944444443,0)" xlink:href="#by"/><use transform="matrix(0.010850694444444444,0,0,0.010850694444444444,40.006510416666664,0)" xlink:href="#aR"/><use transform="matrix(0.010850694444444444,0,0,0.010850694444444444,53.342013888888886,0)" xlink:href="#bG"/><use transform="matrix(0.010850694444444444,0,0,0.010850694444444444,66.67751736111111,0)" xlink:href="#bH"/><use transform="matrix(0.010850694444444444,0,0,0.010850694444444444,80.01302083333334,0)" xlink:href="#aS"/><use transform="matrix(0.010850694444444444,0,0,0.010850694444444444,93.34852430555557,0)" xlink:href="#bI"/><use transform="matrix(0.010850694444444444,0,0,0.010850694444444444,106.6840277777778,0)" xlink:href="#ba"/><use transform="matrix(0.010850694444444444,0,0,0.010850694444444444,120.01953125000003,0)" xlink:href="#aU"/><use transform="matrix(0.010850694444444444,0,0,0.010850694444444444,133.35503472222226,0)" xlink:href="#aV"/></g><g id="A"><use transform="matrix(0.06172839506172839,0,0,0.06172839506172839,0,0)" xlink:href="#be"/><use transform="matrix(0.06172839506172839,0,0,0.06172839506172839,12.345679012345679,0)" xlink:href="#bg"/><use transform="matrix(0.06172839506172839,0,0,0.06172839506172839,23.45679012345679,0)" xlink:href="#be"/><use transform="matrix(0.06172839506172839,0,0,0.06172839506172839,35.80246913580247,0)" xlink:href="#aM"/><use transform="matrix(0.06172839506172839,0,0,0.06172839506172839,48.148148148148145,0)" xlink:href="#aJ"/></g><g id="B"><use transform="matrix(0.06172839506172839,0,0,0.06172839506172839,0,0)" xlink:href="#aE"/><use transform="matrix(0.06172839506172839,0,0,0.06172839506172839,4.876543209876543,0)" xlink:href="#aP"/></g><g id="C"><use transform="matrix(0.06172839506172839,0,0,0.06172839506172839,0,0)" xlink:href="#aI"/><use transform="matrix(0.06172839506172839,0,0,0.06172839506172839,7.345679012345679,0)" xlink:href="#aH"/><use transform="matrix(0.06172839506172839,0,0,0.06172839506172839,19.691358024691358,0)" xlink:href="#aE"/><use transform="matrix(0.06172839506172839,0,0,0.06172839506172839,24.5679012345679,0)" xlink:href="#aP"/><use transform="matrix(0.06172839506172839,0,0,0.06172839506172839,35.67901234567901,0)" xlink:href="#be"/><use transform="matrix(0.06172839506172839,0,0,0.06172839506172839,48.02469135802469,0)" xlink:href="#bB"/></g><g id="E"><use transform="matrix(0.06172839506172839,0,0,0.06172839506172839,0,0)" xlink:href="#aC"/><use transform="matrix(0.06172839506172839,0,0,0.06172839506172839,7.345679012345679,0)" xlink:href="#bm"/><use transform="matrix(0.06172839506172839,0,0,0.06172839506172839,22.160493827160494,0)" xlink:href="#bf"/><use transform="matrix(0.06172839506172839,0,0,0.06172839506172839,34.50617283950617,0)" xlink:href="#aH"/><use transform="matrix(0.06172839506172839,0,0,0.06172839506172839,46.85185185185185,0)" xlink:href="#aP"/><use transform="matrix(0.06172839506172839,0,0,0.06172839506172839,57.96296296296296,0)" xlink:href="#be"/><use transform="matrix(0.06172839506172839,0,0,0.06172839506172839,70.30864197530865,0)" xlink:href="#aP"/></g><g id="F"><use transform="matrix(0.06172839506172839,0,0,0.06172839506172839,0,0)" xlink:href="#bj"/><use transform="matrix(0.06172839506172839,0,0,0.06172839506172839,11.11111111111111,0)" xlink:href="#aH"/><use transform="matrix(0.06172839506172839,0,0,0.06172839506172839,23.45679012345679,0)" xlink:href="#aM"/></g><g id="G"><use transform="matrix(0.06172839506172839,0,0,0.06172839506172839,0,0)" xlink:href="#bf"/><use transform="matrix(0.06172839506172839,0,0,0.06172839506172839,12.345679012345679,0)" xlink:href="#aH"/><use transform="matrix(0.06172839506172839,0,0,0.06172839506172839,24.691358024691358,0)" xlink:href="#bg"/><use transform="matrix(0.06172839506172839,0,0,0.06172839506172839,35.80246913580247,0)" xlink:href="#be"/></g><g id="H"><use transform="matrix(0.06172839506172839,0,0,0.06172839506172839,0,0)" xlink:href="#aH"/><use transform="matrix(0.06172839506172839,0,0,0.06172839506172839,12.345679012345679,0)" xlink:href="#aM"/></g><g id="I"><use transform="matrix(0.06172839506172839,0,0,0.06172839506172839,0,0)" xlink:href="#aE"/><use transform="matrix(0.06172839506172839,0,0,0.06172839506172839,4.876543209876543,0)" xlink:href="#aM"/><use transform="matrix(0.06172839506172839,0,0,0.06172839506172839,17.22222222222222,0)" xlink:href="#bb"/><use transform="matrix(0.06172839506172839,0,0,0.06172839506172839,23.39506172839506,0)" xlink:href="#aE"/><use transform="matrix(0.06172839506172839,0,0,0.06172839506172839,28.2716049382716,0)" xlink:href="#aM"/><use transform="matrix(0.06172839506172839,0,0,0.06172839506172839,40.61728395061728,0)" xlink:href="#aE"/><use transform="matrix(0.06172839506172839,0,0,0.06172839506172839,45.49382716049382,0)" xlink:href="#aJ"/><use transform="matrix(0.06172839506172839,0,0,0.06172839506172839,51.666666666666664,0)" xlink:href="#be"/></g><g id="J"><use transform="matrix(0.06172839506172839,0,0,0.06172839506172839,0,0)" xlink:href="#bB"/><use transform="matrix(0.06172839506172839,0,0,0.06172839506172839,12.345679012345679,0)" xlink:href="#bh"/><use transform="matrix(0.06172839506172839,0,0,0.06172839506172839,24.691358024691358,0)" xlink:href="#aI"/><use transform="matrix(0.06172839506172839,0,0,0.06172839506172839,32.03703703703704,0)" xlink:href="#aH"/><use transform="matrix(0.06172839506172839,0,0,0.06172839506172839,44.382716049382715,0)" xlink:href="#aJ"/><use transform="matrix(0.06172839506172839,0,0,0.06172839506172839,50.55555555555556,0)" xlink:href="#aE"/><use transform="matrix(0.06172839506172839,0,0,0.06172839506172839,55.4320987654321,0)" xlink:href="#aK"/><use transform="matrix(0.06172839506172839,0,0,0.06172839506172839,67.77777777777779,0)" xlink:href="#aM"/><use transform="matrix(0.06172839506172839,0,0,0.06172839506172839,80.12345679012347,0)" xlink:href="#bi"/></g><g id="K"><use transform="matrix(0.07407407407407407,0,0,0.07407407407407407,0,0)" xlink:href="#bl"/><use transform="matrix(0.07407407407407407,0,0,0.07407407407407407,15.259259259259258,0)" xlink:href="#aI"/><use transform="matrix(0.07407407407407407,0,0,0.07407407407407407,24.074074074074073,0)" xlink:href="#aE"/><use transform="matrix(0.07407407407407407,0,0,0.07407407407407407,29.925925925925924,0)" xlink:href="#aH"/><use transform="matrix(0.07407407407407407,0,0,0.07407407407407407,44.74074074074073,0)" xlink:href="#aG"/></g><path fill="#333" d="M709-1193V0H519v-1193H76v-156h1076v156H709" id="bJ"/><path fill="#333" d="M736-142h380V0H134v-142h422v-1200H267v-142h469v1342" id="bK"/><path fill="#333" d="M802-711c201 25 350 118 350 331C1152-95 921 0 634 0H162v-1349c401 9 908-74 908 327 0 184-111 275-268 311zm-224-69c174-2 300-51 300-218 0-163-124-198-302-198H353v416h225zM353-153c281-2 612 44 606-244-5-271-329-233-606-234v478" id="bL"/><path fill="#333" d="M1048-32c-2 300-135 456-433 456-222-1-358-88-400-267l184-25c22 99 100 157 222 156 184-2 248-125 248-315 0-64 3-133-2-194C807-100 706-13 524-12c-306 0-381-228-381-537 0-318 85-550 400-550 164 0 271 83 325 202h3c1-60 3-134 12-185h171c-13 339-4 702-6 1050zM585-145c210-8 284-178 284-406 0-192-52-331-177-392-33-16-69-22-104-22-223 2-259 184-259 414 0 229 31 415 256 406" id="bM"/><g id="L"><use transform="matrix(0.010850694444444444,0,0,0.010850694444444444,0,0)" xlink:href="#bx"/><use transform="matrix(0.010850694444444444,0,0,0.010850694444444444,13.335503472222221,0)" xlink:href="#bu"/><use transform="matrix(0.010850694444444444,0,0,0.010850694444444444,26.671006944444443,0)" xlink:href="#bJ"/><use transform="matrix(0.010850694444444444,0,0,0.010850694444444444,40.006510416666664,0)" xlink:href="#aT"/><use transform="matrix(0.010850694444444444,0,0,0.010850694444444444,53.342013888888886,0)" xlink:href="#bz"/><use transform="matrix(0.010850694444444444,0,0,0.010850694444444444,66.67751736111111,0)" xlink:href="#aS"/><use transform="matrix(0.010850694444444444,0,0,0.010850694444444444,80.01302083333334,0)" xlink:href="#bK"/><use transform="matrix(0.010850694444444444,0,0,0.010850694444444444,93.34852430555557,0)" xlink:href="#bL"/><use transform="matrix(0.010850694444444444,0,0,0.010850694444444444,106.6840277777778,0)" xlink:href="#ba"/><use transform="matrix(0.010850694444444444,0,0,0.010850694444444444,120.01953125000003,0)" xlink:href="#bM"/><use transform="matrix(0.010850694444444444,0,0,0.010850694444444444,133.35503472222226,0)" xlink:href="#bz"/><use transform="matrix(0.010850694444444444,0,0,0.010850694444444444,146.69053819444449,0)" xlink:href="#bu"/><use transform="matrix(0.010850694444444444,0,0,0.010850694444444444,160.0260416666667,0)" xlink:href="#aU"/><use transform="matrix(0.010850694444444444,0,0,0.010850694444444444,173.36154513888894,0)" xlink:href="#aV"/></g><path fill="#333" d="M1121-976c0 225-142 341-344 379L1177 0H957L591-575H353V0H162v-1349h482c281 3 477 100 477 373zM633-726c181-1 296-73 296-247 0-149-101-223-304-223H353v470h280" id="bN"/><g id="M"><use transform="matrix(0.010850694444444444,0,0,0.010850694444444444,0,0)" xlink:href="#bx"/><use transform="matrix(0.010850694444444444,0,0,0.010850694444444444,13.335503472222221,0)" xlink:href="#bu"/><use transform="matrix(0.010850694444444444,0,0,0.010850694444444444,26.671006944444443,0)" xlink:href="#bF"/><use transform="matrix(0.010850694444444444,0,0,0.010850694444444444,40.006510416666664,0)" xlink:href="#ba"/><use transform="matrix(0.010850694444444444,0,0,0.010850694444444444,53.342013888888886,0)" xlink:href="#by"/><use transform="matrix(0.010850694444444444,0,0,0.010850694444444444,66.67751736111111,0)" xlink:href="#aR"/><use transform="matrix(0.010850694444444444,0,0,0.010850694444444444,80.01302083333334,0)" xlink:href="#bN"/><use transform="matrix(0.010850694444444444,0,0,0.010850694444444444,93.34852430555557,0)" xlink:href="#ba"/><use transform="matrix(0.010850694444444444,0,0,0.010850694444444444,106.6840277777778,0)" xlink:href="#aY"/><use transform="matrix(0.010850694444444444,0,0,0.010850694444444444,120.01953125000003,0)" xlink:href="#ba"/><use transform="matrix(0.010850694444444444,0,0,0.010850694444444444,133.35503472222226,0)" xlink:href="#aR"/><use transform="matrix(0.010850694444444444,0,0,0.010850694444444444,146.69053819444449,0)" xlink:href="#bz"/><use transform="matrix(0.010850694444444444,0,0,0.010850694444444444,160.0260416666667,0)" xlink:href="#aR"/><use transform="matrix(0.010850694444444444,0,0,0.010850694444444444,173.36154513888894,0)" xlink:href="#bz"/><use transform="matrix(0.010850694444444444,0,0,0.010850694444444444,186.69704861111117,0)" xlink:href="#bw"/><use transform="matrix(0.010850694444444444,0,0,0.010850694444444444,200.0325520833334,0)" xlink:href="#bu"/><use transform="matrix(0.010850694444444444,0,0,0.010850694444444444,213.36805555555563,0)" xlink:href="#aU"/><use transform="matrix(0.010850694444444444,0,0,0.010850694444444444,226.70355902777786,0)" xlink:href="#aV"/></g><path fill="#333" d="M650-1214c-281 0-336 244-336 533 0 295 60 546 347 546 188 0 263-142 322-282l159 65C1058-155 935 20 659 20c-401 0-546-295-546-701 0-407 135-689 536-689 264 0 391 146 466 335l-168 65c-47-129-127-244-297-244" id="bO"/><path fill="#333" d="M904-1102c199 0 220 177 220 381V0H956v-686c-3-114 0-215-60-264-70-33-125-4-158 71-26 56-39 140-39 252V0H531v-686c-3-114-1-215-61-264-78-41-136 24-157 84-24 69-39 159-39 259V0H105c-3-360 6-732-6-1082h149c6 50 3 123 8 175 36-100 83-195 216-195 135 0 166 79 196 196 42-105 93-196 236-196" id="bP"/><g id="N"><use transform="matrix(0.010850694444444444,0,0,0.010850694444444444,0,0)" xlink:href="#bx"/><use transform="matrix(0.010850694444444444,0,0,0.010850694444444444,13.335503472222221,0)" xlink:href="#bu"/><use transform="matrix(0.010850694444444444,0,0,0.010850694444444444,26.671006944444443,0)" xlink:href="#bJ"/><use transform="matrix(0.010850694444444444,0,0,0.010850694444444444,40.006510416666664,0)" xlink:href="#aT"/><use transform="matrix(0.010850694444444444,0,0,0.010850694444444444,53.342013888888886,0)" xlink:href="#bz"/><use transform="matrix(0.010850694444444444,0,0,0.010850694444444444,66.67751736111111,0)" xlink:href="#aS"/><use transform="matrix(0.010850694444444444,0,0,0.010850694444444444,80.01302083333334,0)" xlink:href="#bK"/><use transform="matrix(0.010850694444444444,0,0,0.010850694444444444,93.34852430555557,0)" xlink:href="#bO"/><use transform="matrix(0.010850694444444444,0,0,0.010850694444444444,106.6840277777778,0)" xlink:href="#bw"/><use transform="matrix(0.010850694444444444,0,0,0.010850694444444444,120.01953125000003,0)" xlink:href="#bP"/><use transform="matrix(0.010850694444444444,0,0,0.010850694444444444,133.35503472222226,0)" xlink:href="#aY"/><use transform="matrix(0.010850694444444444,0,0,0.010850694444444444,146.69053819444449,0)" xlink:href="#bK"/><use transform="matrix(0.010850694444444444,0,0,0.010850694444444444,160.0260416666667,0)" xlink:href="#ba"/><use transform="matrix(0.010850694444444444,0,0,0.010850694444444444,173.36154513888894,0)" xlink:href="#aR"/><use transform="matrix(0.010850694444444444,0,0,0.010850694444444444,186.69704861111117,0)" xlink:href="#ba"/><use transform="matrix(0.010850694444444444,0,0,0.010850694444444444,200.0325520833334,0)" xlink:href="#aU"/><use transform="matrix(0.010850694444444444,0,0,0.010850694444444444,213.36805555555563,0)" xlink:href="#aV"/></g><g id="O"><use transform="matrix(0.04320987654320986,0,0,0.04320987654320986,0,0)" xlink:href="#bm"/><use transform="matrix(0.04320987654320986,0,0,0.04320987654320986,10.370370370370367,0)" xlink:href="#bf"/><use transform="matrix(0.04320987654320986,0,0,0.04320987654320986,19.01234567901234,0)" xlink:href="#aH"/><use transform="matrix(0.04320987654320986,0,0,0.04320987654320986,27.654320987654316,0)" xlink:href="#aP"/><use transform="matrix(0.04320987654320986,0,0,0.04320987654320986,35.43209876543209,0)" xlink:href="#be"/></g><path fill="#333" d="M233-177c-1 41-23 64-60 70L243 0h-38l-65-103H63V0H30v-248c88 3 205-21 203 71zM63-129c60-2 137 13 137-47 0-61-80-42-137-45v92" id="bQ"/><g id="P"><use transform="matrix(0.06172839506172839,0,0,0.06172839506172839,0,0)" xlink:href="#bQ"/><use transform="matrix(0.06172839506172839,0,0,0.06172839506172839,15.987654320987653,0)" xlink:href="#be"/><use transform="matrix(0.06172839506172839,0,0,0.06172839506172839,28.333333333333332,0)" xlink:href="#bp"/><use transform="matrix(0.06172839506172839,0,0,0.06172839506172839,40.67901234567901,0)" xlink:href="#be"/><use transform="matrix(0.06172839506172839,0,0,0.06172839506172839,53.02469135802469,0)" xlink:href="#aH"/><use transform="matrix(0.06172839506172839,0,0,0.06172839506172839,65.37037037037037,0)" xlink:href="#aJ"/></g><use transform="matrix(0.010850694444444444,0,0,0.010850694444444444,0,0)" xlink:href="#bn" id="Q"/><g id="R"><use transform="matrix(0.06172839506172839,0,0,0.06172839506172839,0,0)" xlink:href="#aI"/><use transform="matrix(0.06172839506172839,0,0,0.06172839506172839,7.345679012345679,0)" xlink:href="#be"/><use transform="matrix(0.06172839506172839,0,0,0.06172839506172839,19.691358024691358,0)" xlink:href="#bp"/><use transform="matrix(0.06172839506172839,0,0,0.06172839506172839,32.03703703703704,0)" xlink:href="#be"/><use transform="matrix(0.06172839506172839,0,0,0.06172839506172839,44.382716049382715,0)" xlink:href="#aJ"/><use transform="matrix(0.06172839506172839,0,0,0.06172839506172839,50.55555555555556,0)" xlink:href="#aE"/><use transform="matrix(0.06172839506172839,0,0,0.06172839506172839,55.4320987654321,0)" xlink:href="#aJ"/><use transform="matrix(0.06172839506172839,0,0,0.06172839506172839,61.604938271604944,0)" xlink:href="#aE"/><use transform="matrix(0.06172839506172839,0,0,0.06172839506172839,66.48148148148148,0)" xlink:href="#aK"/><use transform="matrix(0.06172839506172839,0,0,0.06172839506172839,78.82716049382717,0)" xlink:href="#aM"/><use transform="matrix(0.06172839506172839,0,0,0.06172839506172839,91.17283950617285,0)" xlink:href="#aP"/></g><g id="S"><use transform="matrix(0.06172839506172839,0,0,0.06172839506172839,0,0)" xlink:href="#bD"/><use transform="matrix(0.06172839506172839,0,0,0.06172839506172839,12.345679012345679,0)" xlink:href="#bE"/></g><g id="T"><use transform="matrix(0.06172839506172839,0,0,0.06172839506172839,0,0)" xlink:href="#bh"/><use transform="matrix(0.06172839506172839,0,0,0.06172839506172839,12.345679012345679,0)" xlink:href="#aM"/><use transform="matrix(0.06172839506172839,0,0,0.06172839506172839,24.691358024691358,0)" xlink:href="#aJ"/><use transform="matrix(0.06172839506172839,0,0,0.06172839506172839,30.864197530864196,0)" xlink:href="#aE"/><use transform="matrix(0.06172839506172839,0,0,0.06172839506172839,35.74074074074074,0)" xlink:href="#aG"/></g><path fill="#333" d="M496 0v-299h235V0H496" id="bR"/><g id="U"><use transform="matrix(0.010850694444444444,0,0,0.010850694444444444,0,0)" xlink:href="#bJ"/><use transform="matrix(0.010850694444444444,0,0,0.010850694444444444,13.335503472222221,0)" xlink:href="#aT"/><use transform="matrix(0.010850694444444444,0,0,0.010850694444444444,26.671006944444443,0)" xlink:href="#bz"/><use transform="matrix(0.010850694444444444,0,0,0.010850694444444444,40.006510416666664,0)" xlink:href="#aS"/><use transform="matrix(0.010850694444444444,0,0,0.010850694444444444,53.342013888888886,0)" xlink:href="#bK"/><use transform="matrix(0.010850694444444444,0,0,0.010850694444444444,66.67751736111111,0)" xlink:href="#bR"/><use transform="matrix(0.010850694444444444,0,0,0.010850694444444444,80.01302083333334,0)" xlink:href="#bt"/><use transform="matrix(0.010850694444444444,0,0,0.010850694444444444,93.34852430555557,0)" xlink:href="#by"/><use transform="matrix(0.010850694444444444,0,0,0.010850694444444444,106.6840277777778,0)" xlink:href="#bz"/><use transform="matrix(0.010850694444444444,0,0,0.010850694444444444,120.01953125000003,0)" xlink:href="#aR"/><use transform="matrix(0.010850694444444444,0,0,0.010850694444444444,133.35503472222226,0)" xlink:href="#bJ"/><use transform="matrix(0.010850694444444444,0,0,0.010850694444444444,146.69053819444449,0)" xlink:href="#aT"/><use transform="matrix(0.010850694444444444,0,0,0.010850694444444444,160.0260416666667,0)" xlink:href="#bz"/><use transform="matrix(0.010850694444444444,0,0,0.010850694444444444,173.36154513888894,0)" xlink:href="#aS"/><use transform="matrix(0.010850694444444444,0,0,0.010850694444444444,186.69704861111117,0)" xlink:href="#bK"/><use transform="matrix(0.010850694444444444,0,0,0.010850694444444444,200.0325520833334,0)" xlink:href="#aU"/><use transform="matrix(0.010850694444444444,0,0,0.010850694444444444,213.36805555555563,0)" xlink:href="#aV"/></g><g id="V"><use transform="matrix(0.06172839506172839,0,0,0.06172839506172839,0,0)" xlink:href="#aE"/><use transform="matrix(0.06172839506172839,0,0,0.06172839506172839,4.876543209876543,0)" xlink:href="#aP"/></g><g id="W"><use transform="matrix(0.06172839506172839,0,0,0.06172839506172839,0,0)" xlink:href="#bj"/><use transform="matrix(0.06172839506172839,0,0,0.06172839506172839,11.11111111111111,0)" xlink:href="#aH"/><use transform="matrix(0.06172839506172839,0,0,0.06172839506172839,23.45679012345679,0)" xlink:href="#aG"/><use transform="matrix(0.06172839506172839,0,0,0.06172839506172839,28.333333333333336,0)" xlink:href="#aG"/><use transform="matrix(0.06172839506172839,0,0,0.06172839506172839,33.20987654320988,0)" xlink:href="#be"/><use transform="matrix(0.06172839506172839,0,0,0.06172839506172839,45.55555555555556,0)" xlink:href="#bB"/></g><g id="X"><use transform="matrix(0.06172839506172839,0,0,0.06172839506172839,0,0)" xlink:href="#aC"/><use transform="matrix(0.06172839506172839,0,0,0.06172839506172839,7.345679012345679,0)" xlink:href="#bl"/><use transform="matrix(0.06172839506172839,0,0,0.06172839506172839,20.061728395061728,0)" xlink:href="#aI"/><use transform="matrix(0.06172839506172839,0,0,0.06172839506172839,27.407407407407405,0)" xlink:href="#aE"/><use transform="matrix(0.06172839506172839,0,0,0.06172839506172839,32.28395061728395,0)" xlink:href="#aH"/><use transform="matrix(0.06172839506172839,0,0,0.06172839506172839,44.629629629629626,0)" xlink:href="#aG"/><use transform="matrix(0.06172839506172839,0,0,0.06172839506172839,49.50617283950617,0)" xlink:href="#aP"/></g><g id="Y"><use transform="matrix(0.06172839506172839,0,0,0.06172839506172839,0,0)" xlink:href="#aI"/><use transform="matrix(0.06172839506172839,0,0,0.06172839506172839,7.345679012345679,0)" xlink:href="#be"/><use transform="matrix(0.06172839506172839,0,0,0.06172839506172839,19.691358024691358,0)" xlink:href="#bp"/><use transform="matrix(0.06172839506172839,0,0,0.06172839506172839,32.03703703703704,0)" xlink:href="#be"/><use transform="matrix(0.06172839506172839,0,0,0.06172839506172839,44.382716049382715,0)" xlink:href="#aH"/><use transform="matrix(0.06172839506172839,0,0,0.06172839506172839,56.72839506172839,0)" xlink:href="#aJ"/></g><g id="Z"><use transform="matrix(0.06172839506172839,0,0,0.06172839506172839,0,0)" xlink:href="#be"/><use transform="matrix(0.06172839506172839,0,0,0.06172839506172839,12.345679012345679,0)" xlink:href="#aM"/><use transform="matrix(0.06172839506172839,0,0,0.06172839506172839,24.691358024691358,0)" xlink:href="#bB"/><use transform="matrix(0.06172839506172839,0,0,0.06172839506172839,37.03703703703704,0)" xlink:href="#aG"/><use transform="matrix(0.06172839506172839,0,0,0.06172839506172839,41.91358024691358,0)" xlink:href="#be"/><use transform="matrix(0.06172839506172839,0,0,0.06172839506172839,54.25925925925926,0)" xlink:href="#aP"/><use transform="matrix(0.06172839506172839,0,0,0.06172839506172839,65.37037037037037,0)" xlink:href="#aP"/><use transform="matrix(0.06172839506172839,0,0,0.06172839506172839,76.48148148148148,0)" xlink:href="#aG"/><use transform="matrix(0.06172839506172839,0,0,0.06172839506172839,81.35802469135803,0)" xlink:href="#aN"/><use transform="matrix(0.06172839506172839,0,0,0.06172839506172839,92.46913580246914,0)" xlink:href="#bi"/></g><g id="aa"><use transform="matrix(0.07407407407407407,0,0,0.07407407407407407,0,0)" xlink:href="#bd"/><use transform="matrix(0.07407407407407407,0,0,0.07407407407407407,17.77777777777778,0)" xlink:href="#aG"/><use transform="matrix(0.07407407407407407,0,0,0.07407407407407407,23.62962962962963,0)" xlink:href="#aK"/><use transform="matrix(0.07407407407407407,0,0,0.07407407407407407,38.44444444444444,0)" xlink:href="#bj"/><use transform="matrix(0.07407407407407407,0,0,0.07407407407407407,51.77777777777777,0)" xlink:href="#bk"/></g><path fill="#333" d="M631 20c-350 0-501-215-501-562 0-355 162-560 502-560 250 0 399 118 446 323l-192 14c-23-124-109-196-262-196-242 0-305 171-305 415 1 245 61 427 304 427 151 0 248-77 267-215l190 12C1039-107 883 20 631 20" id="bS"/><path fill="#333" d="M914 0L548-499l-132 98V0H236v-1484h180v927l475-525h211L663-617 1125 0H914" id="bT"/><g id="ab"><use transform="matrix(0.010850694444444444,0,0,0.010850694444444444,0,0)" xlink:href="#bx"/><use transform="matrix(0.010850694444444444,0,0,0.010850694444444444,13.335503472222221,0)" xlink:href="#bu"/><use transform="matrix(0.010850694444444444,0,0,0.010850694444444444,26.671006944444443,0)" xlink:href="#bL"/><use transform="matrix(0.010850694444444444,0,0,0.010850694444444444,40.006510416666664,0)" xlink:href="#bK"/><use transform="matrix(0.010850694444444444,0,0,0.010850694444444444,53.342013888888886,0)" xlink:href="#bw"/><use transform="matrix(0.010850694444444444,0,0,0.010850694444444444,66.67751736111111,0)" xlink:href="#bS"/><use transform="matrix(0.010850694444444444,0,0,0.010850694444444444,80.01302083333334,0)" xlink:href="#bT"/><use transform="matrix(0.010850694444444444,0,0,0.010850694444444444,93.34852430555557,0)" xlink:href="#bt"/><use transform="matrix(0.010850694444444444,0,0,0.010850694444444444,106.6840277777778,0)" xlink:href="#bu"/><use transform="matrix(0.010850694444444444,0,0,0.010850694444444444,120.01953125000003,0)" xlink:href="#aZ"/><use transform="matrix(0.010850694444444444,0,0,0.010850694444444444,133.35503472222226,0)" xlink:href="#aU"/><use transform="matrix(0.010850694444444444,0,0,0.010850694444444444,146.69053819444449,0)" xlink:href="#aV"/></g><g id="ac"><use transform="matrix(0.04320987654320986,0,0,0.04320987654320986,0,0)" xlink:href="#bl"/><use transform="matrix(0.04320987654320986,0,0,0.04320987654320986,8.901234567901232,0)" xlink:href="#aI"/><use transform="matrix(0.04320987654320986,0,0,0.04320987654320986,14.043209876543205,0)" xlink:href="#aE"/><use transform="matrix(0.04320987654320986,0,0,0.04320987654320986,17.456790123456784,0)" xlink:href="#aH"/><use transform="matrix(0.04320987654320986,0,0,0.04320987654320986,26.09876543209876,0)" xlink:href="#aG"/></g><g id="ad"><use transform="matrix(0.06172839506172839,0,0,0.06172839506172839,0,0)" xlink:href="#bl"/><use transform="matrix(0.06172839506172839,0,0,0.06172839506172839,12.716049382716047,0)" xlink:href="#aI"/><use transform="matrix(0.06172839506172839,0,0,0.06172839506172839,20.061728395061728,0)" xlink:href="#aE"/><use transform="matrix(0.06172839506172839,0,0,0.06172839506172839,24.938271604938272,0)" xlink:href="#aH"/><use transform="matrix(0.06172839506172839,0,0,0.06172839506172839,37.28395061728395,0)" xlink:href="#aG"/><use transform="matrix(0.06172839506172839,0,0,0.06172839506172839,42.160493827160494,0)" xlink:href="#aP"/></g><g id="ae"><use transform="matrix(0.06172839506172839,0,0,0.06172839506172839,0,0)" xlink:href="#bB"/><use transform="matrix(0.06172839506172839,0,0,0.06172839506172839,12.345679012345679,0)" xlink:href="#aK"/></g><g id="af"><use transform="matrix(0.06172839506172839,0,0,0.06172839506172839,0,0)" xlink:href="#aM"/><use transform="matrix(0.06172839506172839,0,0,0.06172839506172839,12.345679012345679,0)" xlink:href="#aK"/><use transform="matrix(0.06172839506172839,0,0,0.06172839506172839,24.691358024691358,0)" xlink:href="#aJ"/></g><g id="ag"><use transform="matrix(0.06172839506172839,0,0,0.06172839506172839,0,0)" xlink:href="#bf"/><use transform="matrix(0.06172839506172839,0,0,0.06172839506172839,12.345679012345679,0)" xlink:href="#aH"/><use transform="matrix(0.06172839506172839,0,0,0.06172839506172839,24.691358024691358,0)" xlink:href="#bg"/><use transform="matrix(0.06172839506172839,0,0,0.06172839506172839,35.80246913580247,0)" xlink:href="#be"/></g><g id="ah"><use transform="matrix(0.06172839506172839,0,0,0.06172839506172839,0,0)" xlink:href="#aJ"/><use transform="matrix(0.06172839506172839,0,0,0.06172839506172839,6.172839506172839,0)" xlink:href="#aK"/></g><path fill="#333" d="M177-190C167-65 218 103 67 71c-23-6-38-20-44-43l32-5c15 47 100 32 89-28v-30C133-14 115 1 83 1 29 1 15-40 15-95c0-56 16-97 71-98 29-1 48 16 59 35 1-10 0-23 2-32h30zM94-22c36 0 50-32 50-73 0-42-14-75-50-75-39 0-46 34-46 75s6 73 46 73" id="bU"/><g id="ai"><use transform="matrix(0.06172839506172839,0,0,0.06172839506172839,0,0)" xlink:href="#bp"/><use transform="matrix(0.06172839506172839,0,0,0.06172839506172839,12.345679012345679,0)" xlink:href="#aI"/><use transform="matrix(0.06172839506172839,0,0,0.06172839506172839,19.691358024691358,0)" xlink:href="#aK"/><use transform="matrix(0.06172839506172839,0,0,0.06172839506172839,32.03703703703704,0)" xlink:href="#bU"/><use transform="matrix(0.06172839506172839,0,0,0.06172839506172839,44.382716049382715,0)" xlink:href="#aI"/><use transform="matrix(0.06172839506172839,0,0,0.06172839506172839,51.72839506172839,0)" xlink:href="#be"/><use transform="matrix(0.06172839506172839,0,0,0.06172839506172839,64.07407407407408,0)" xlink:href="#aP"/><use transform="matrix(0.06172839506172839,0,0,0.06172839506172839,75.18518518518519,0)" xlink:href="#aP"/></g><g id="aj"><use transform="matrix(0.06172839506172839,0,0,0.06172839506172839,0,0)" xlink:href="#aG"/><use transform="matrix(0.06172839506172839,0,0,0.06172839506172839,4.876543209876543,0)" xlink:href="#aE"/><use transform="matrix(0.06172839506172839,0,0,0.06172839506172839,9.753086419753085,0)" xlink:href="#aM"/><use transform="matrix(0.06172839506172839,0,0,0.06172839506172839,22.098765432098766,0)" xlink:href="#be"/><use transform="matrix(0.06172839506172839,0,0,0.06172839506172839,34.44444444444444,0)" xlink:href="#aH"/><use transform="matrix(0.06172839506172839,0,0,0.06172839506172839,46.79012345679012,0)" xlink:href="#aI"/><use transform="matrix(0.06172839506172839,0,0,0.06172839506172839,54.1358024691358,0)" xlink:href="#aG"/><use transform="matrix(0.06172839506172839,0,0,0.06172839506172839,59.01234567901234,0)" xlink:href="#aN"/></g><path fill="#333" d="M115-194c53 0 69 39 70 98 0 66-23 100-70 100C84 3 66-7 56-30L54 0H23l1-261h32v101c10-23 28-34 59-34zm-8 174c40 0 45-34 45-75 0-40-5-75-45-74-42 0-51 32-51 76 0 43 10 73 51 73" id="bV"/><g id="ak"><use transform="matrix(0.06172839506172839,0,0,0.06172839506172839,0,0)" xlink:href="#bV"/><use transform="matrix(0.06172839506172839,0,0,0.06172839506172839,12.345679012345679,0)" xlink:href="#aN"/></g><g id="al"><use transform="matrix(0.06172839506172839,0,0,0.06172839506172839,0,0)" xlink:href="#bj"/><use transform="matrix(0.06172839506172839,0,0,0.06172839506172839,11.11111111111111,0)" xlink:href="#aH"/><use transform="matrix(0.06172839506172839,0,0,0.06172839506172839,23.45679012345679,0)" xlink:href="#aG"/><use transform="matrix(0.06172839506172839,0,0,0.06172839506172839,28.333333333333336,0)" xlink:href="#aG"/><use transform="matrix(0.06172839506172839,0,0,0.06172839506172839,33.20987654320988,0)" xlink:href="#aE"/><use transform="matrix(0.06172839506172839,0,0,0.06172839506172839,38.086419753086425,0)" xlink:href="#aM"/><use transform="matrix(0.06172839506172839,0,0,0.06172839506172839,50.4320987654321,0)" xlink:href="#bU"/></g><g id="am"><use transform="matrix(0.010850694444444444,0,0,0.010850694444444444,0,0)" xlink:href="#bJ"/><use transform="matrix(0.010850694444444444,0,0,0.010850694444444444,13.335503472222221,0)" xlink:href="#aT"/><use transform="matrix(0.010850694444444444,0,0,0.010850694444444444,26.671006944444443,0)" xlink:href="#bz"/><use transform="matrix(0.010850694444444444,0,0,0.010850694444444444,40.006510416666664,0)" xlink:href="#aS"/><use transform="matrix(0.010850694444444444,0,0,0.010850694444444444,53.342013888888886,0)" xlink:href="#bK"/><use transform="matrix(0.010850694444444444,0,0,0.010850694444444444,66.67751736111111,0)" xlink:href="#bR"/><use transform="matrix(0.010850694444444444,0,0,0.010850694444444444,80.01302083333334,0)" xlink:href="#aQ"/><use transform="matrix(0.010850694444444444,0,0,0.010850694444444444,93.34852430555557,0)" xlink:href="#bT"/><use transform="matrix(0.010850694444444444,0,0,0.010850694444444444,106.6840277777778,0)" xlink:href="#bz"/><use transform="matrix(0.010850694444444444,0,0,0.010850694444444444,120.01953125000003,0)" xlink:href="#aY"/><use transform="matrix(0.010850694444444444,0,0,0.010850694444444444,133.35503472222226,0)" xlink:href="#bJ"/><use transform="matrix(0.010850694444444444,0,0,0.010850694444444444,146.69053819444449,0)" xlink:href="#bw"/><use transform="matrix(0.010850694444444444,0,0,0.010850694444444444,160.0260416666667,0)" xlink:href="#bJ"/><use transform="matrix(0.010850694444444444,0,0,0.010850694444444444,173.36154513888894,0)" xlink:href="#aT"/><use transform="matrix(0.010850694444444444,0,0,0.010850694444444444,186.69704861111117,0)" xlink:href="#bz"/><use transform="matrix(0.010850694444444444,0,0,0.010850694444444444,200.0325520833334,0)" xlink:href="#aS"/><use transform="matrix(0.010850694444444444,0,0,0.010850694444444444,213.36805555555563,0)" xlink:href="#bK"/><use transform="matrix(0.010850694444444444,0,0,0.010850694444444444,226.70355902777786,0)" xlink:href="#aU"/><use transform="matrix(0.010850694444444444,0,0,0.010850694444444444,240.03906250000006,0)" xlink:href="#aV"/></g><g id="an"><use transform="matrix(0.06172839506172839,0,0,0.06172839506172839,0,0)" xlink:href="#bm"/><use transform="matrix(0.06172839506172839,0,0,0.06172839506172839,14.814814814814813,0)" xlink:href="#bf"/><use transform="matrix(0.06172839506172839,0,0,0.06172839506172839,27.160493827160494,0)" xlink:href="#aH"/><use transform="matrix(0.06172839506172839,0,0,0.06172839506172839,39.50617283950617,0)" xlink:href="#aP"/><use transform="matrix(0.06172839506172839,0,0,0.06172839506172839,50.61728395061728,0)" xlink:href="#be"/><use transform="matrix(0.06172839506172839,0,0,0.06172839506172839,62.962962962962955,0)" xlink:href="#aP"/></g><g id="ao"><use transform="matrix(0.06172839506172839,0,0,0.06172839506172839,0,0)" xlink:href="#bV"/><use transform="matrix(0.06172839506172839,0,0,0.06172839506172839,12.345679012345679,0)" xlink:href="#be"/></g><g id="ap"><use transform="matrix(0.06172839506172839,0,0,0.06172839506172839,0,0)" xlink:href="#aP"/><use transform="matrix(0.06172839506172839,0,0,0.06172839506172839,11.11111111111111,0)" xlink:href="#be"/><use transform="matrix(0.06172839506172839,0,0,0.06172839506172839,23.45679012345679,0)" xlink:href="#aJ"/></g><g id="aq"><use transform="matrix(0.06172839506172839,0,0,0.06172839506172839,0,0)" xlink:href="#aK"/><use transform="matrix(0.06172839506172839,0,0,0.06172839506172839,12.345679012345679,0)" xlink:href="#aM"/><use transform="matrix(0.06172839506172839,0,0,0.06172839506172839,24.691358024691358,0)" xlink:href="#aG"/><use transform="matrix(0.06172839506172839,0,0,0.06172839506172839,29.5679012345679,0)" xlink:href="#aN"/></g><g id="ar"><use transform="matrix(0.06172839506172839,0,0,0.06172839506172839,0,0)" xlink:href="#aI"/><use transform="matrix(0.06172839506172839,0,0,0.06172839506172839,7.345679012345679,0)" xlink:href="#bh"/><use transform="matrix(0.06172839506172839,0,0,0.06172839506172839,19.691358024691358,0)" xlink:href="#aM"/></g><g id="as"><use transform="matrix(0.06172839506172839,0,0,0.06172839506172839,0,0)" xlink:href="#aK"/><use transform="matrix(0.06172839506172839,0,0,0.06172839506172839,12.345679012345679,0)" xlink:href="#aM"/></g><g id="at"><use transform="matrix(0.06172839506172839,0,0,0.06172839506172839,0,0)" xlink:href="#aJ"/><use transform="matrix(0.06172839506172839,0,0,0.06172839506172839,6.172839506172839,0)" xlink:href="#bf"/><use transform="matrix(0.06172839506172839,0,0,0.06172839506172839,18.51851851851852,0)" xlink:href="#be"/></g><g id="au"><use transform="matrix(0.06172839506172839,0,0,0.06172839506172839,0,0)" xlink:href="#bb"/><use transform="matrix(0.06172839506172839,0,0,0.06172839506172839,6.172839506172839,0)" xlink:href="#aE"/><use transform="matrix(0.06172839506172839,0,0,0.06172839506172839,11.049382716049383,0)" xlink:href="#aI"/><use transform="matrix(0.06172839506172839,0,0,0.06172839506172839,18.395061728395063,0)" xlink:href="#aP"/><use transform="matrix(0.06172839506172839,0,0,0.06172839506172839,29.506172839506174,0)" xlink:href="#aJ"/></g><g id="av"><use transform="matrix(0.06172839506172839,0,0,0.06172839506172839,0,0)" xlink:href="#aI"/><use transform="matrix(0.06172839506172839,0,0,0.06172839506172839,7.345679012345679,0)" xlink:href="#be"/><use transform="matrix(0.06172839506172839,0,0,0.06172839506172839,19.691358024691358,0)" xlink:href="#bp"/><use transform="matrix(0.06172839506172839,0,0,0.06172839506172839,32.03703703703704,0)" xlink:href="#be"/><use transform="matrix(0.06172839506172839,0,0,0.06172839506172839,44.382716049382715,0)" xlink:href="#aJ"/><use transform="matrix(0.06172839506172839,0,0,0.06172839506172839,50.55555555555556,0)" xlink:href="#aE"/><use transform="matrix(0.06172839506172839,0,0,0.06172839506172839,55.4320987654321,0)" xlink:href="#aJ"/><use transform="matrix(0.06172839506172839,0,0,0.06172839506172839,61.604938271604944,0)" xlink:href="#aE"/><use transform="matrix(0.06172839506172839,0,0,0.06172839506172839,66.48148148148148,0)" xlink:href="#aK"/><use transform="matrix(0.06172839506172839,0,0,0.06172839506172839,78.82716049382717,0)" xlink:href="#aM"/></g><g id="aw"><use transform="matrix(0.008680555555555554,0,0,0.008680555555555554,0,0)" xlink:href="#aT"/><use transform="matrix(0.008680555555555554,0,0,0.008680555555555554,10.668402777777777,0)" xlink:href="#ba"/><use transform="matrix(0.008680555555555554,0,0,0.008680555555555554,21.336805555555554,0)" xlink:href="#aY"/></g><path fill="#333" d="M116-154v-153l858-367-858-366v-154l995 418v205" id="bW"/><path fill="#333" d="M116-856v-148h995v148H116zm0 512v-148h995v148H116" id="bX"/><g id="ax"><use transform="matrix(0.008680555555555554,0,0,0.008680555555555554,0,0)" xlink:href="#bW"/><use transform="matrix(0.008680555555555554,0,0,0.008680555555555554,10.668402777777777,0)" xlink:href="#bX"/></g><path fill="#333" d="M148-1120c216-7 379-89 463-229h166v1204h353V0H157v-145h439v-1021c-79 124-254 184-448 194v-148" id="bY"/><use transform="matrix(0.008680555555555554,0,0,0.008680555555555554,0,0)" xlink:href="#bY" id="ay"/><g id="az"><use transform="matrix(0.010850694444444444,0,0,0.010850694444444444,0,0)" xlink:href="#aX"/><use transform="matrix(0.010850694444444444,0,0,0.010850694444444444,13.335503472222221,0)" xlink:href="#bI"/><use transform="matrix(0.010850694444444444,0,0,0.010850694444444444,26.671006944444443,0)" xlink:href="#ba"/><use transform="matrix(0.010850694444444444,0,0,0.010850694444444444,40.006510416666664,0)" xlink:href="#aT"/></g><path fill="#333" d="M365-904c58-129 161-200 334-200 130 0 228 46 293 138s98 233 98 420c0 189-34 331-102 425S824 20 698 20c-170 0-275-64-336-184 0 55-3 116-9 164H179c5-68 6-147 6-223v-1261h180c-2 193 4 394-4 580h4zm283 791c221 0 256-197 256-427 0-229-34-425-254-425-236 0-285 195-285 441 0 237 53 411 283 411" id="bZ"/><g id="aA"><use transform="matrix(0.010850694444444444,0,0,0.010850694444444444,0,0)" xlink:href="#bS"/><use transform="matrix(0.010850694444444444,0,0,0.010850694444444444,13.335503472222221,0)" xlink:href="#aS"/><use transform="matrix(0.010850694444444444,0,0,0.010850694444444444,26.671006944444443,0)" xlink:href="#bK"/><use transform="matrix(0.010850694444444444,0,0,0.010850694444444444,40.006510416666664,0)" xlink:href="#bK"/><use transform="matrix(0.010850694444444444,0,0,0.010850694444444444,53.342013888888886,0)" xlink:href="#bZ"/><use transform="matrix(0.010850694444444444,0,0,0.010850694444444444,66.67751736111111,0)" xlink:href="#aS"/><use transform="matrix(0.010850694444444444,0,0,0.010850694444444444,80.01302083333334,0)" xlink:href="#bS"/><use transform="matrix(0.010850694444444444,0,0,0.010850694444444444,93.34852430555557,0)" xlink:href="#bT"/><use transform="matrix(0.010850694444444444,0,0,0.010850694444444444,106.6840277777778,0)" xlink:href="#bI"/></g><g id="aB"><use transform="matrix(0.010850694444444444,0,0,0.010850694444444444,0,0)" xlink:href="#bx"/><use transform="matrix(0.010850694444444444,0,0,0.010850694444444444,13.335503472222221,0)" xlink:href="#bu"/><use transform="matrix(0.010850694444444444,0,0,0.010850694444444444,26.671006944444443,0)" xlink:href="#bL"/><use transform="matrix(0.010850694444444444,0,0,0.010850694444444444,40.006510416666664,0)" xlink:href="#bK"/><use transform="matrix(0.010850694444444444,0,0,0.010850694444444444,53.342013888888886,0)" xlink:href="#bw"/><use transform="matrix(0.010850694444444444,0,0,0.010850694444444444,66.67751736111111,0)" xlink:href="#bS"/><use transform="matrix(0.010850694444444444,0,0,0.010850694444444444,80.01302083333334,0)" xlink:href="#bT"/><use transform="matrix(0.010850694444444444,0,0,0.010850694444444444,93.34852430555557,0)" xlink:href="#aQ"/><use transform="matrix(0.010850694444444444,0,0,0.010850694444444444,106.6840277777778,0)" xlink:href="#aR"/><use transform="matrix(0.010850694444444444,0,0,0.010850694444444444,120.01953125000003,0)" xlink:href="#aS"/><use transform="matrix(0.010850694444444444,0,0,0.010850694444444444,133.35503472222226,0)" xlink:href="#aT"/><use transform="matrix(0.010850694444444444,0,0,0.010850694444444444,146.69053819444449,0)" xlink:href="#aR"/><use transform="matrix(0.010850694444444444,0,0,0.010850694444444444,160.0260416666667,0)" xlink:href="#aU"/><use transform="matrix(0.010850694444444444,0,0,0.010850694444444444,173.36154513888894,0)" xlink:href="#aV"/></g></defs></g></svg>