# ProBuilder 4.2.3
# https://unity3d.com/unity/features/worldbuilding/probuilder
# 3/23/2021 4:04:54 PM

mtllib ./PhysicalButton.mtl
o PhysicalButton

g PhysicalButton
v -0.025 -0.01164109 0
v -0.025 -0.008069657 0
v -0.02377641 -0.01164109 0.007725425
v -0.02377641 -0.008069657 0.007725425
v -0.02022543 -0.01164109 0.01469463
v -0.02022543 -0.008069657 0.01469463
v -0.01469463 -0.01164109 0.02022543
v -0.01469463 -0.008069657 0.02022543
v -0.007725425 -0.01164109 0.02377641
v -0.007725425 -0.008069657 0.02377641
v 1.862645E-09 -0.01164109 0.025
v 1.862645E-09 -0.008069657 0.025
v 0.007725423 -0.01164109 0.02377641
v 0.007725423 -0.008069657 0.02377641
v 0.01469463 -0.01164109 0.02022543
v 0.01469463 -0.008069657 0.02022543
v 0.02022543 -0.01164109 0.01469463
v 0.02022543 -0.008069657 0.01469463
v 0.02377641 -0.01164109 0.007725426
v 0.02377641 -0.008069657 0.007725426
v 0.025 -0.01164109 -2.18557E-09
v 0.025 -0.008069657 -2.18557E-09
v 0.02377641 -0.01164109 -0.007725425
v 0.02377641 -0.008069657 -0.007725425
v 0.02022543 -0.01164109 -0.01469463
v 0.02022543 -0.008069657 -0.01469463
v 0.01469464 -0.01164109 -0.02022542
v 0.01469464 -0.008069657 -0.02022542
v 0.007725427 -0.01164109 -0.02377641
v 0.007725427 -0.008069657 -0.02377641
v 0 -0.01164109 -0.025
v 0 -0.008069657 -0.025
v -0.007725429 -0.01164109 -0.02377641
v -0.007725429 -0.008069657 -0.02377641
v -0.01469463 -0.01164109 -0.02022543
v -0.01469463 -0.008069657 -0.02022543
v -0.02022542 -0.01164109 -0.01469463
v -0.02022542 -0.008069657 -0.01469463
v -0.02377641 -0.01164109 -0.007725424
v -0.02377641 -0.008069657 -0.007725424
v -0.025 -0.004498228 0
v -0.02377641 -0.004498228 0.007725425
v -0.02022543 -0.004498228 0.01469463
v -0.01469463 -0.004498228 0.02022543
v -0.007725425 -0.004498228 0.02377641
v 1.862645E-09 -0.004498228 0.025
v 0.007725423 -0.004498228 0.02377641
v 0.01469463 -0.004498228 0.02022543
v 0.02022543 -0.004498228 0.01469463
v 0.02377641 -0.004498228 0.007725426
v 0.025 -0.004498228 -2.18557E-09
v 0.02377641 -0.004498228 -0.007725425
v 0.02022543 -0.004498228 -0.01469463
v 0.01469464 -0.004498228 -0.02022542
v 0.007725427 -0.004498228 -0.02377641
v 0 -0.004498228 -0.025
v -0.007725429 -0.004498228 -0.02377641
v -0.01469463 -0.004498228 -0.02022543
v -0.02022542 -0.004498228 -0.01469463
v -0.02377641 -0.004498228 -0.007725424
v -0.025 -0.0009267991 0
v -0.02377641 -0.0009267991 0.007725425
v -0.02022543 -0.0009267991 0.01469463
v -0.01469463 -0.0009267991 0.02022543
v -0.007725425 -0.0009267991 0.02377641
v 1.862645E-09 -0.0009267991 0.025
v 0.007725423 -0.0009267991 0.02377641
v 0.01469463 -0.0009267991 0.02022543
v 0.02022543 -0.0009267991 0.01469463
v 0.02377641 -0.0009267991 0.007725426
v 0.025 -0.0009267991 -2.18557E-09
v 0.02377641 -0.0009267991 -0.007725425
v 0.02022543 -0.0009267991 -0.01469463
v 0.01469464 -0.0009267991 -0.02022542
v 0.007725427 -0.0009267991 -0.02377641
v 0 -0.0009267991 -0.025
v -0.007725429 -0.0009267991 -0.02377641
v -0.01469463 -0.0009267991 -0.02022543
v -0.02022542 -0.0009267991 -0.01469463
v -0.02377641 -0.0009267991 -0.007725424
v -0.025 0.002644629 0
v -0.02377641 0.002644629 0.007725425
v -0.02022543 0.002644629 0.01469463
v -0.01469463 0.002644629 0.02022543
v -0.007725425 0.002644629 0.02377641
v 1.862645E-09 0.002644629 0.025
v 0.007725423 0.002644629 0.02377641
v 0.01469463 0.002644629 0.02022543
v 0.02022543 0.002644629 0.01469463
v 0.02377641 0.002644629 0.007725426
v 0.025 0.002644629 -2.18557E-09
v 0.02377641 0.002644629 -0.007725425
v 0.02022543 0.002644629 -0.01469463
v 0.01469464 0.002644629 -0.02022542
v 0.007725427 0.002644629 -0.02377641
v 0 0.002644629 -0.025
v -0.007725429 0.002644629 -0.02377641
v -0.01469463 0.002644629 -0.02022543
v -0.02022542 0.002644629 -0.01469463
v -0.02377641 0.002644629 -0.007725424
v -0.02423552 0.006216049 -5.695833E-11
v -0.02304935 0.006216049 0.007489187
v -0.01960695 0.006216049 0.01424528
v -0.01424528 0.006216049 0.01960695
v -0.007489188 0.006216049 0.02304935
v 1.862645E-09 0.006216049 0.02423552
v 0.007489184 0.006216049 0.02304935
v 0.01424528 0.006216049 0.01960695
v 0.01960695 0.006216049 0.01424528
v 0.02304935 0.006216049 0.007489188
v 0.02423552 0.006216049 -2.175695E-09
v 0.02304935 0.006216049 -0.007489187
v 0.01960695 0.006216049 -0.01424528
v 0.01424528 0.006216049 -0.01960694
v 0.007489188 0.006216049 -0.02304935
v 0 0.006216049 -0.02423552
v -0.007489191 0.006216049 -0.02304935
v -0.01424528 0.006216049 -0.01960695
v -0.01960695 0.006216049 -0.01424528
v -0.02304935 0.006216049 -0.007489186
v -0.01775013 0.009105325 0
v -0.01688138 0.009105325 0.005485092
v -0.01436016 0.009105325 0.01043327
v -0.01043327 0.009105325 0.01436016
v -0.005485093 0.009105325 0.01688138
v 1.862645E-09 0.009105325 0.01775013
v 0.005485091 0.009105325 0.01688138
v 0.01043326 0.009105325 0.01436016
v 0.01436016 0.009105325 0.01043326
v 0.01688137 0.009105325 0.005485093
v 0.01775013 0.009105325 -1.551766E-09
v 0.01688138 0.009105325 -0.005485092
v 0.01436016 0.009105325 -0.01043326
v 0.01043327 0.009105325 -0.01436015
v 0.005485093 0.009105325 -0.01688138
v 0 0.009105325 -0.01775013
v -0.005485095 0.009105325 -0.01688138
v -0.01043326 0.009105325 -0.01436016
v -0.01436016 0.009105325 -0.01043327
v -0.01688138 0.009105325 -0.005485091
v -0.008681456 0.01164103 0
v -0.008256553 0.01164103 0.002682717
v -0.007023444 0.01164103 0.005102831
v -0.005102832 0.01164103 0.007023445
v -0.002682718 0.01164103 0.008256554
v 1.862645E-09 0.01164103 0.008681455
v 0.002682718 0.01164103 0.008256554
v 0.00510283 0.01164103 0.007023445
v 0.007023444 0.01164103 0.00510283
v 0.008256553 0.01164103 0.002682717
v 0.008681456 0.01164103 -7.589569E-10
v 0.008256553 0.01164103 -0.002682717
v 0.007023444 0.01164103 -0.00510283
v 0.005102834 0.01164103 -0.007023443
v 0.002682718 0.01164103 -0.008256554
v 0 0.01164103 -0.008681455
v -0.002682718 0.01164103 -0.008256554
v -0.005102828 0.01164103 -0.007023446
v -0.007023444 0.01164103 -0.005102831
v -0.008256553 0.01164103 -0.002682717
v 0 -0.01164109 0
v 0 0.01164103 0

vt -0.00391086 -0.01164109
vt -0.00391086 -0.008069657
vt 0.003910864 -0.01164109
vt 0.003910864 -0.008069657
vt -0.00391086 -0.004498228
vt 0.003910864 -0.004498228
vt -0.00391086 -0.0009267991
vt 0.003910864 -0.0009267991
vt -0.00391086 0.002644629
vt 0.003910864 0.002644629
vt -0.00391086 -0.002520092
vt -0.003791268 0.001130274
vt 0.003910864 -0.002520092
vt 0.003791273 0.001130274
vt 0.01960836 -0.0009995844
vt 0.01250849 -0.0009995843
vt 0.01852486 0.006505143
vt 0.01171493 0.00449689
vt 0.01906876 0.004676481
vt 0.01226826 0.002636531
vt 0.01587467 0.01155345
vt 0.009928904 0.007673231
vt 0.01679099 0.01017594
vt 0.01091435 0.006191822
vt 0.01168285 0.01577968
vt 0.007173136 0.01029601
vt 0.01270866 0.01496587
vt 0.008394513 0.009327046
vt 0.006089914 0.01866548
vt 0.003546935 0.01203665
vt 0.00703309 0.01833092
vt 0.004830601 0.01158132
vt -0.000437525 0.01962895
vt -0.0006408896 0.01253199
vt 0.0006408865 0.01253199
vt -0.007033085 0.01833092
vt -0.004830599 0.01158132
vt -0.00608991 0.01866548
vt -0.003546932 0.01203665
vt -0.01270865 0.01496587
vt -0.008394509 0.009327045
vt -0.01168285 0.01577968
vt -0.007173134 0.010296
vt -0.01679099 0.01017594
vt -0.01091435 0.006191819
vt -0.01587466 0.01155345
vt -0.009928902 0.007673231
vt -0.01906876 0.004676482
vt -0.01226826 0.002636532
vt -0.01852485 0.006505142
vt -0.01171493 0.004496887
vt -0.01960837 -0.0009995891
vt -0.01250849 -0.0009995885
vt -0.01960836 0.0009995827
vt -0.01250849 0.0009995833
vt -0.01852486 -0.006505142
vt -0.01171493 -0.004496889
vt -0.01906876 -0.004676479
vt -0.01226827 -0.002636528
vt -0.01587467 -0.01155344
vt -0.009928904 -0.007673228
vt -0.01679099 -0.01017594
vt -0.01091434 -0.006191819
vt -0.01168285 -0.01577967
vt -0.007173139 -0.010296
vt -0.01270866 -0.01496586
vt -0.008394515 -0.00932704
vt -0.006089913 -0.01866548
vt -0.003546933 -0.01203664
vt -0.007033089 -0.01833092
vt -0.0048306 -0.01158131
vt 0.0004375239 -0.01962895
vt 0.0006408889 -0.01253199
vt -0.0006408886 -0.01253199
vt 0.007033093 -0.01833092
vt 0.004830602 -0.01158131
vt 0.006089917 -0.01866548
vt 0.003546936 -0.01203665
vt 0.01270865 -0.01496587
vt 0.008394508 -0.009327047
vt 0.01168285 -0.01577968
vt 0.007173134 -0.01029601
vt 0.01679099 -0.01017594
vt 0.01091435 -0.006191821
vt 0.01587467 -0.01155345
vt 0.009928903 -0.007673232
vt 0.01906876 -0.00467648
vt 0.01226826 -0.00263653
vt 0.01852486 -0.006505141
vt 0.01171493 -0.004496888
vt 0.01960836 0.0009995846
vt 0.01250849 0.0009995847
vt 0.01464256 -0.0005773324
vt 0.005226049 -0.0005773324
vt 0.0138059 0.004912746
vt 0.004816842 0.002107824
vt 0.0141417 0.003840609
vt 0.005158634 0.001016557
vt 0.01169705 0.008827057
vt 0.003962976 0.003455391
vt 0.01229357 0.007975342
vt 0.004601855 0.002543193
vt 0.008443066 0.01197717
vt 0.002718605 0.004500456
vt 0.009187453 0.01141616
vt 0.003577268 0.003853319
vt 0.004279648 0.01401508
vt 0.001176898 0.005124433
vt 0.005076879 0.01374639
vt 0.002165061 0.00479139
vt -0.0004028451 0.0146484
vt -0.000515031 0.005232557
vt 0.0005150279 0.005232556
vt -0.005076877 0.01374639
vt -0.002165061 0.004791389
vt -0.004279646 0.01401508
vt -0.001176897 0.005124433
vt -0.009187449 0.01141616
vt -0.003577266 0.003853319
vt -0.008443062 0.01197717
vt -0.002718603 0.004500455
vt -0.01229357 0.00797534
vt -0.004601855 0.002543192
vt -0.01169705 0.008827057
vt -0.003962975 0.003455391
vt -0.01414169 0.00384061
vt -0.005158633 0.001016558
vt -0.01380589 0.004912744
vt -0.004816842 0.002107821
vt -0.01464256 -0.0005773362
vt -0.00522605 -0.0005773354
vt -0.01464256 0.000577331
vt -0.00522605 0.0005773318
vt -0.0138059 -0.004912746
vt -0.004816843 -0.002107823
vt -0.0141417 -0.003840608
vt -0.005158634 -0.001016556
vt -0.01169705 -0.008827054
vt -0.003962976 -0.003455389
vt -0.01229357 -0.00797534
vt -0.004601854 -0.002543192
vt -0.008443069 -0.01197716
vt -0.002718606 -0.004500454
vt -0.009187456 -0.01141615
vt -0.00357727 -0.003853316
vt -0.004279648 -0.01401508
vt -0.001176897 -0.005124433
vt -0.005076878 -0.01374639
vt -0.00216506 -0.00479139
vt 0.0004028442 -0.0146484
vt 0.0005150305 -0.005232557
vt -0.0005150303 -0.005232556
vt 0.00507688 -0.01374639
vt 0.00216506 -0.004791389
vt 0.00427965 -0.01401508
vt 0.001176897 -0.005124433
vt 0.009187449 -0.01141616
vt 0.003577264 -0.00385332
vt 0.008443062 -0.01197717
vt 0.002718602 -0.004500456
vt 0.01229357 -0.007975342
vt 0.004601856 -0.002543192
vt 0.01169705 -0.008827057
vt 0.003962976 -0.00345539
vt 0.0141417 -0.003840608
vt 0.005158634 -0.001016556
vt 0.0138059 -0.004912745
vt 0.004816843 -0.002107823
vt 0.01464256 0.0005773323
vt 0.005226051 0.0005773323
vt -0.025 0
vt 0 0
vt -0.02377641 0.007725425
vt 0.008681456 0
vt 0.008256553 0.002682717
vt -0.02022543 0.01469463
vt 0.007023444 0.005102831
vt -0.01469463 0.02022543
vt 0.005102832 0.007023445
vt -0.007725425 0.02377641
vt 0.002682718 0.008256554
vt 1.862645E-09 0.025
vt -1.862645E-09 0.008681455
vt 0.007725423 0.02377641
vt -0.002682718 0.008256554
vt 0.01469463 0.02022543
vt -0.00510283 0.007023445
vt 0.02022543 0.01469463
vt -0.007023444 0.00510283
vt 0.02377641 0.007725426
vt -0.008256553 0.002682717
vt 0.025 -2.18557E-09
vt -0.008681456 -7.589569E-10
vt 0.02377641 -0.007725425
vt -0.008256553 -0.002682717
vt 0.02022543 -0.01469463
vt -0.007023444 -0.00510283
vt 0.01469464 -0.02022542
vt -0.005102834 -0.007023443
vt 0.007725427 -0.02377641
vt -0.002682718 -0.008256554
vt 0 -0.025
vt 0 -0.008681455
vt -0.007725429 -0.02377641
vt 0.002682718 -0.008256554
vt -0.01469463 -0.02022543
vt 0.005102828 -0.007023446
vt -0.02022542 -0.01469463
vt 0.007023444 -0.005102831
vt -0.02377641 -0.007725424
vt 0.008256553 -0.002682717

vn -1 0 -1.508691E-08
vn -0.9510565 0 0.3090169
vn -0.8090171 0 0.5877852
vn -0.5877852 0 0.809017
vn -0.3090169 0 0.9510565
vn 6.034762E-08 0 1
vn 0.309017 0 0.9510565
vn 0.5877852 0 0.809017
vn 0.8090171 0 0.5877852
vn 0.9510565 0 0.309017
vn 1 0 1.734994E-07
vn 0.9510565 0 -0.309017
vn 0.8090171 0 -0.5877852
vn 0.5877854 0 -0.8090168
vn 0.3090171 0 -0.9510564
vn 1.508691E-08 0 -1
vn -0.3090171 0 -0.9510565
vn -0.5877851 0 -0.8090171
vn -0.8090169 0 -0.5877854
vn -0.9510565 0 -0.3090169
vn -0.9944438 0.1052695 -7.583544E-09
vn -0.9457722 0.1052695 0.3072999
vn -0.8045219 0.1052695 0.5845193
vn -0.5845194 0.1052695 0.8045219
vn -0.3072999 0.1052695 0.9457723
vn 6.446012E-08 0.1052695 0.9944438
vn 0.3073 0.1052695 0.9457722
vn 0.5845193 0.1052696 0.8045219
vn 0.804522 0.1052697 0.5845193
vn 0.9457722 0.1052695 0.3073
vn 0.9944438 0.1052695 1.706297E-07
vn 0.9457722 0.1052695 -0.3073001
vn 0.8045219 0.1052696 -0.5845193
vn 0.5845196 0.1052696 -0.8045217
vn 0.3073002 0.1052695 -0.9457721
vn 1.137532E-08 0.1052695 -0.9944438
vn -0.3073 0.1052695 -0.9457722
vn -0.5845193 0.1052695 -0.804522
vn -0.8045218 0.1052695 -0.5845194
vn -0.9457722 0.1052695 -0.3073
vn -0.7751993 0.6317168 -1.052089E-08
vn -0.7372584 0.6317168 0.2395497
vn -0.6271495 0.6317168 0.4556506
vn -0.4556507 0.6317168 0.6271493
vn -0.2395497 0.6317167 0.7372584
vn 6.522951E-08 0.6317168 0.7751992
vn 0.2395497 0.6317168 0.7372583
vn 0.4556506 0.6317168 0.6271493
vn 0.6271493 0.6317168 0.4556506
vn 0.7372583 0.6317168 0.2395498
vn 0.7751993 0.6317168 1.451883E-07
vn 0.7372583 0.6317168 -0.2395498
vn 0.6271493 0.6317169 -0.4556507
vn 0.4556508 0.6317168 -0.6271492
vn 0.2395498 0.6317168 -0.7372583
vn 2.525013E-08 0.6317168 -0.7751993
vn -0.2395498 0.6317167 -0.7372583
vn -0.4556506 0.6317167 -0.6271494
vn -0.6271493 0.6317168 -0.4556508
vn -0.7372584 0.6317168 -0.2395497
vn -0.3389835 0.9407923 -3.55383E-08
vn -0.3223924 0.9407923 0.1047517
vn -0.2742434 0.9407923 0.1992494
vn -0.1992495 0.9407923 0.2742434
vn -0.1047516 0.9407923 0.3223925
vn 2.057481E-08 0.9407923 0.3389835
vn 0.1047517 0.9407923 0.3223924
vn 0.1992495 0.9407923 0.2742434
vn 0.2742434 0.9407923 0.1992495
vn 0.3223925 0.9407923 0.1047517
vn 0.3389835 0.9407923 1.075501E-07
vn 0.3223924 0.9407923 -0.1047517
vn 0.2742434 0.9407923 -0.1992495
vn 0.1992496 0.9407923 -0.2742434
vn 0.1047517 0.9407923 -0.3223925
vn 1.402828E-08 0.9407923 -0.3389835
vn -0.1047517 0.9407923 -0.3223924
vn -0.1992495 0.9407923 -0.2742434
vn -0.2742434 0.9407923 -0.1992495
vn -0.3223924 0.9407923 -0.1047516
vn -0.1358403 0.9907307 -3.667837E-08
vn -0.1291918 0.9907307 0.041977
vn -0.1098971 0.9907307 0.0798449
vn -0.07984494 0.9907307 0.1098971
vn -0.04197694 0.9907307 0.1291918
vn 4.702355E-09 0.9907307 0.1358403
vn 0.04197699 0.9907307 0.1291918
vn 0.07984494 0.9907307 0.1098971
vn 0.1098971 0.9907307 0.07984493
vn 0.1291918 0.9907307 0.041977
vn 0.1358403 0.9907307 2.821413E-08
vn 0.1291918 0.9907307 -0.04197702
vn 0.1098972 0.9907307 -0.0798449
vn 0.07984497 0.9907307 -0.1098971
vn 0.04197699 0.9907307 -0.1291918
vn 0 0.9907307 -0.1358403
vn -0.04197698 0.9907307 -0.1291918
vn -0.07984492 0.9907307 -0.1098971
vn -0.1098971 0.9907307 -0.07984494
vn -0.1291918 0.9907307 -0.04197696
vn 0 -1 0
vn 0 1 0

usemtl ButtonRed
f 1/171/101 161/172/101 3/173/101
f 3/173/101 161/172/101 5/176/101
f 5/176/101 161/172/101 7/178/101
f 7/178/101 161/172/101 9/180/101
f 9/180/101 161/172/101 11/182/101
f 11/182/101 161/172/101 13/184/101
f 13/184/101 161/172/101 15/186/101
f 15/186/101 161/172/101 17/188/101
f 17/188/101 161/172/101 19/190/101
f 19/190/101 161/172/101 21/192/101
f 21/192/101 161/172/101 23/194/101
f 23/194/101 161/172/101 25/196/101
f 25/196/101 161/172/101 27/198/101
f 27/198/101 161/172/101 29/200/101
f 29/200/101 161/172/101 31/202/101
f 31/202/101 161/172/101 33/204/101
f 33/204/101 161/172/101 35/206/101
f 35/206/101 161/172/101 37/208/101
f 37/208/101 161/172/101 39/210/101
f 39/210/101 161/172/101 1/171/101
f 142/175/82 162/172/102 141/174/81
f 143/177/83 162/172/102 142/175/82
f 144/179/84 162/172/102 143/177/83
f 145/181/85 162/172/102 144/179/84
f 146/183/86 162/172/102 145/181/85
f 147/185/87 162/172/102 146/183/86
f 148/187/88 162/172/102 147/185/87
f 149/189/89 162/172/102 148/187/88
f 150/191/90 162/172/102 149/189/89
f 151/193/91 162/172/102 150/191/90
f 152/195/92 162/172/102 151/193/91
f 153/197/93 162/172/102 152/195/92
f 154/199/94 162/172/102 153/197/93
f 155/201/95 162/172/102 154/199/94
f 156/203/96 162/172/102 155/201/95
f 157/205/97 162/172/102 156/203/96
f 158/207/98 162/172/102 157/205/97
f 159/209/99 162/172/102 158/207/98
f 160/211/100 162/172/102 159/209/99
f 141/174/81 162/172/102 160/211/100
f 4/4/2 2/2/1 1/1/1
f 1/1/1 3/3/2 4/4/2
f 6/4/3 4/2/2 3/1/2
f 3/1/2 5/3/3 6/4/3
f 8/4/4 6/2/3 5/1/3
f 5/1/3 7/3/4 8/4/4
f 10/4/5 8/2/4 7/1/4
f 7/1/4 9/3/5 10/4/5
f 12/4/6 10/2/5 9/1/5
f 9/1/5 11/3/6 12/4/6
f 14/4/7 12/2/6 11/1/6
f 11/1/6 13/3/7 14/4/7
f 16/4/8 14/2/7 13/1/7
f 13/1/7 15/3/8 16/4/8
f 18/4/9 16/2/8 15/1/8
f 15/1/8 17/3/9 18/4/9
f 20/4/10 18/2/9 17/1/9
f 17/1/9 19/3/10 20/4/10
f 22/4/11 20/2/10 19/1/10
f 19/1/10 21/3/11 22/4/11
f 24/4/12 22/2/11 21/1/11
f 21/1/11 23/3/12 24/4/12
f 26/4/13 24/2/12 23/1/12
f 23/1/12 25/3/13 26/4/13
f 28/4/14 26/2/13 25/1/13
f 25/1/13 27/3/14 28/4/14
f 30/4/15 28/2/14 27/1/14
f 27/1/14 29/3/15 30/4/15
f 32/4/16 30/2/15 29/1/15
f 29/1/15 31/3/16 32/4/16
f 34/4/17 32/2/16 31/1/16
f 31/1/16 33/3/17 34/4/17
f 36/4/18 34/2/17 33/1/17
f 33/1/17 35/3/18 36/4/18
f 38/4/19 36/2/18 35/1/18
f 35/1/18 37/3/19 38/4/19
f 40/4/20 38/2/19 37/1/19
f 37/1/19 39/3/20 40/4/20
f 2/4/1 40/2/20 39/1/20
f 39/1/20 1/3/1 2/4/1
f 42/6/2 41/5/1 2/2/1
f 2/2/1 4/4/2 42/6/2
f 43/6/3 42/5/2 4/2/2
f 4/2/2 6/4/3 43/6/3
f 44/6/4 43/5/3 6/2/3
f 6/2/3 8/4/4 44/6/4
f 45/6/5 44/5/4 8/2/4
f 8/2/4 10/4/5 45/6/5
f 46/6/6 45/5/5 10/2/5
f 10/2/5 12/4/6 46/6/6
f 47/6/7 46/5/6 12/2/6
f 12/2/6 14/4/7 47/6/7
f 48/6/8 47/5/7 14/2/7
f 14/2/7 16/4/8 48/6/8
f 49/6/9 48/5/8 16/2/8
f 16/2/8 18/4/9 49/6/9
f 50/6/10 49/5/9 18/2/9
f 18/2/9 20/4/10 50/6/10
f 51/6/11 50/5/10 20/2/10
f 20/2/10 22/4/11 51/6/11
f 52/6/12 51/5/11 22/2/11
f 22/2/11 24/4/12 52/6/12
f 53/6/13 52/5/12 24/2/12
f 24/2/12 26/4/13 53/6/13
f 54/6/14 53/5/13 26/2/13
f 26/2/13 28/4/14 54/6/14
f 55/6/15 54/5/14 28/2/14
f 28/2/14 30/4/15 55/6/15
f 56/6/16 55/5/15 30/2/15
f 30/2/15 32/4/16 56/6/16
f 57/6/17 56/5/16 32/2/16
f 32/2/16 34/4/17 57/6/17
f 58/6/18 57/5/17 34/2/17
f 34/2/17 36/4/18 58/6/18
f 59/6/19 58/5/18 36/2/18
f 36/2/18 38/4/19 59/6/19
f 60/6/20 59/5/19 38/2/19
f 38/2/19 40/4/20 60/6/20
f 41/6/1 60/5/20 40/2/20
f 40/2/20 2/4/1 41/6/1
f 62/8/2 61/7/1 41/5/1
f 41/5/1 42/6/2 62/8/2
f 63/8/3 62/7/2 42/5/2
f 42/5/2 43/6/3 63/8/3
f 64/8/4 63/7/3 43/5/3
f 43/5/3 44/6/4 64/8/4
f 65/8/5 64/7/4 44/5/4
f 44/5/4 45/6/5 65/8/5
f 66/8/6 65/7/5 45/5/5
f 45/5/5 46/6/6 66/8/6
f 67/8/7 66/7/6 46/5/6
f 46/5/6 47/6/7 67/8/7
f 68/8/8 67/7/7 47/5/7
f 47/5/7 48/6/8 68/8/8
f 69/8/9 68/7/8 48/5/8
f 48/5/8 49/6/9 69/8/9
f 70/8/10 69/7/9 49/5/9
f 49/5/9 50/6/10 70/8/10
f 71/8/11 70/7/10 50/5/10
f 50/5/10 51/6/11 71/8/11
f 72/8/12 71/7/11 51/5/11
f 51/5/11 52/6/12 72/8/12
f 73/8/13 72/7/12 52/5/12
f 52/5/12 53/6/13 73/8/13
f 74/8/14 73/7/13 53/5/13
f 53/5/13 54/6/14 74/8/14
f 75/8/15 74/7/14 54/5/14
f 54/5/14 55/6/15 75/8/15
f 76/8/16 75/7/15 55/5/15
f 55/5/15 56/6/16 76/8/16
f 77/8/17 76/7/16 56/5/16
f 56/5/16 57/6/17 77/8/17
f 78/8/18 77/7/17 57/5/17
f 57/5/17 58/6/18 78/8/18
f 79/8/19 78/7/18 58/5/18
f 58/5/18 59/6/19 79/8/19
f 80/8/20 79/7/19 59/5/19
f 59/5/19 60/6/20 80/8/20
f 61/8/1 80/7/20 60/5/20
f 60/5/20 41/6/1 61/8/1
f 82/10/22 81/9/21 61/7/1
f 61/7/1 62/8/2 82/10/22
f 83/10/23 82/9/22 62/7/2
f 62/7/2 63/8/3 83/10/23
f 84/10/24 83/9/23 63/7/3
f 63/7/3 64/8/4 84/10/24
f 85/10/25 84/9/24 64/7/4
f 64/7/4 65/8/5 85/10/25
f 86/10/26 85/9/25 65/7/5
f 65/7/5 66/8/6 86/10/26
f 87/10/27 86/9/26 66/7/6
f 66/7/6 67/8/7 87/10/27
f 88/10/28 87/9/27 67/7/7
f 67/7/7 68/8/8 88/10/28
f 89/10/29 88/9/28 68/7/8
f 68/7/8 69/8/9 89/10/29
f 90/10/30 89/9/29 69/7/9
f 69/7/9 70/8/10 90/10/30
f 91/10/31 90/9/30 70/7/10
f 70/7/10 71/8/11 91/10/31
f 92/10/32 91/9/31 71/7/11
f 71/7/11 72/8/12 92/10/32
f 93/10/33 92/9/32 72/7/12
f 72/7/12 73/8/13 93/10/33
f 94/10/34 93/9/33 73/7/13
f 73/7/13 74/8/14 94/10/34
f 95/10/35 94/9/34 74/7/14
f 74/7/14 75/8/15 95/10/35
f 96/10/36 95/9/35 75/7/15
f 75/7/15 76/8/16 96/10/36
f 97/10/37 96/9/36 76/7/16
f 76/7/16 77/8/17 97/10/37
f 98/10/38 97/9/37 77/7/17
f 77/7/17 78/8/18 98/10/38
f 99/10/39 98/9/38 78/7/18
f 78/7/18 79/8/19 99/10/39
f 100/10/40 99/9/39 79/7/19
f 79/7/19 80/8/20 100/10/40
f 81/10/21 100/9/40 80/7/20
f 80/7/20 61/8/1 81/10/21
f 102/14/42 101/12/41 81/11/21
f 81/11/21 82/13/22 102/14/42
f 103/14/43 102/12/42 82/11/22
f 82/11/22 83/13/23 103/14/43
f 104/14/44 103/12/43 83/11/23
f 83/11/23 84/13/24 104/14/44
f 105/14/45 104/12/44 84/11/24
f 84/11/24 85/13/25 105/14/45
f 106/14/46 105/12/45 85/11/25
f 85/11/25 86/13/26 106/14/46
f 107/14/47 106/12/46 86/11/26
f 86/11/26 87/13/27 107/14/47
f 108/14/48 107/12/47 87/11/27
f 87/11/27 88/13/28 108/14/48
f 109/14/49 108/12/48 88/11/28
f 88/11/28 89/13/29 109/14/49
f 110/14/50 109/12/49 89/11/29
f 89/11/29 90/13/30 110/14/50
f 111/14/51 110/12/50 90/11/30
f 90/11/30 91/13/31 111/14/51
f 112/14/52 111/12/51 91/11/31
f 91/11/31 92/13/32 112/14/52
f 113/14/53 112/12/52 92/11/32
f 92/11/32 93/13/33 113/14/53
f 114/14/54 113/12/53 93/11/33
f 93/11/33 94/13/34 114/14/54
f 115/14/55 114/12/54 94/11/34
f 94/11/34 95/13/35 115/14/55
f 116/14/56 115/12/55 95/11/35
f 95/11/35 96/13/36 116/14/56
f 117/14/57 116/12/56 96/11/36
f 96/11/36 97/13/37 117/14/57
f 118/14/58 117/12/57 97/11/37
f 97/11/37 98/13/38 118/14/58
f 119/14/59 118/12/58 98/11/38
f 98/11/38 99/13/39 119/14/59
f 120/14/60 119/12/59 99/11/39
f 99/11/39 100/13/40 120/14/60
f 101/14/41 120/12/60 100/11/40
f 100/11/40 81/13/21 101/14/41
f 122/18/62 121/16/61 101/15/41
f 101/15/41 102/17/42 122/18/62
f 123/22/63 122/20/62 102/19/42
f 102/19/42 103/21/43 123/22/63
f 124/26/64 123/24/63 103/23/43
f 103/23/43 104/25/44 124/26/64
f 125/30/65 124/28/64 104/27/44
f 104/27/44 105/29/45 125/30/65
f 126/34/66 125/32/65 105/31/45
f 105/31/45 106/33/46 126/34/66
f 127/37/67 126/35/66 106/33/46
f 106/33/46 107/36/47 127/37/67
f 128/41/68 127/39/67 107/38/47
f 107/38/47 108/40/48 128/41/68
f 129/45/69 128/43/68 108/42/48
f 108/42/48 109/44/49 129/45/69
f 130/49/70 129/47/69 109/46/49
f 109/46/49 110/48/50 130/49/70
f 131/53/71 130/51/70 110/50/50
f 110/50/50 111/52/51 131/53/71
f 132/57/72 131/55/71 111/54/51
f 111/54/51 112/56/52 132/57/72
f 133/61/73 132/59/72 112/58/52
f 112/58/52 113/60/53 133/61/73
f 134/65/74 133/63/73 113/62/53
f 113/62/53 114/64/54 134/65/74
f 135/69/75 134/67/74 114/66/54
f 114/66/54 115/68/55 135/69/75
f 136/73/76 135/71/75 115/70/55
f 115/70/55 116/72/56 136/73/76
f 137/76/77 136/74/76 116/72/56
f 116/72/56 117/75/57 137/76/77
f 138/80/78 137/78/77 117/77/57
f 117/77/57 118/79/58 138/80/78
f 139/84/79 138/82/78 118/81/58
f 118/81/58 119/83/59 139/84/79
f 140/88/80 139/86/79 119/85/59
f 119/85/59 120/87/60 140/88/80
f 121/92/61 140/90/80 120/89/60
f 120/89/60 101/91/41 121/92/61
f 142/96/82 141/94/81 121/93/61
f 121/93/61 122/95/62 142/96/82
f 143/100/83 142/98/82 122/97/62
f 122/97/62 123/99/63 143/100/83
f 144/104/84 143/102/83 123/101/63
f 123/101/63 124/103/64 144/104/84
f 145/108/85 144/106/84 124/105/64
f 124/105/64 125/107/65 145/108/85
f 146/112/86 145/110/85 125/109/65
f 125/109/65 126/111/66 146/112/86
f 147/115/87 146/113/86 126/111/66
f 126/111/66 127/114/67 147/115/87
f 148/119/88 147/117/87 127/116/67
f 127/116/67 128/118/68 148/119/88
f 149/123/89 148/121/88 128/120/68
f 128/120/68 129/122/69 149/123/89
f 150/127/90 149/125/89 129/124/69
f 129/124/69 130/126/70 150/127/90
f 151/131/91 150/129/90 130/128/70
f 130/128/70 131/130/71 151/131/91
f 152/135/92 151/133/91 131/132/71
f 131/132/71 132/134/72 152/135/92
f 153/139/93 152/137/92 132/136/72
f 132/136/72 133/138/73 153/139/93
f 154/143/94 153/141/93 133/140/73
f 133/140/73 134/142/74 154/143/94
f 155/147/95 154/145/94 134/144/74
f 134/144/74 135/146/75 155/147/95
f 156/151/96 155/149/95 135/148/75
f 135/148/75 136/150/76 156/151/96
f 157/154/97 156/152/96 136/150/76
f 136/150/76 137/153/77 157/154/97
f 158/158/98 157/156/97 137/155/77
f 137/155/77 138/157/78 158/158/98
f 159/162/99 158/160/98 138/159/78
f 138/159/78 139/161/79 159/162/99
f 160/166/100 159/164/99 139/163/79
f 139/163/79 140/165/80 160/166/100
f 141/170/81 160/168/100 140/167/80
f 140/167/80 121/169/61 141/170/81

